<svg width="18" height="16" viewBox="0 0 18 16" fill="none" xmlns="http://www.w3.org/2000/svg">
<path fill-rule="evenodd" clip-rule="evenodd" d="M9.31117 0.872696C9.40987 0.773749 9.52712 0.695245 9.6562 0.641681C9.78529 0.588117 9.92367 0.560547 10.0634 0.560547C10.2032 0.560547 10.3416 0.588117 10.4706 0.641681C10.5997 0.695245 10.717 0.773749 10.8157 0.872696L17.1907 7.24769C17.2896 7.34639 17.3681 7.46364 17.4217 7.59272C17.4752 7.72181 17.5028 7.86019 17.5028 7.99994C17.5028 8.1397 17.4752 8.27808 17.4217 8.40716C17.3681 8.53625 17.2896 8.6535 17.1907 8.75219L10.8157 15.1272C10.6162 15.3267 10.3456 15.4388 10.0634 15.4388C9.78127 15.4388 9.51068 15.3267 9.31117 15.1272C9.11166 14.9277 8.99958 14.6571 8.99958 14.3749C8.99958 14.0928 9.11166 13.8222 9.31117 13.6227L14.936 7.99994L9.31117 2.3772C9.21223 2.2785 9.13372 2.16125 9.08016 2.03217C9.0266 1.90308 8.99902 1.7647 8.99902 1.62495C8.99902 1.48519 9.0266 1.34681 9.08016 1.21772C9.13372 1.08864 9.21223 0.971393 9.31117 0.872696Z" fill="white"/>
<path fill-rule="evenodd" clip-rule="evenodd" d="M0.5 8C0.5 7.71821 0.611942 7.44796 0.811199 7.2487C1.01046 7.04944 1.28071 6.9375 1.5625 6.9375H15.375C15.6568 6.9375 15.927 7.04944 16.1263 7.2487C16.3256 7.44796 16.4375 7.71821 16.4375 8C16.4375 8.28179 16.3256 8.55204 16.1263 8.7513C15.927 8.95056 15.6568 9.0625 15.375 9.0625H1.5625C1.28071 9.0625 1.01046 8.95056 0.811199 8.7513C0.611942 8.55204 0.5 8.28179 0.5 8Z" fill="white"/>
</svg>
