<svg width="31" height="31" viewBox="0 0 31 31" fill="none" xmlns="http://www.w3.org/2000/svg">
<path d="M27.4 2.4H25.9V0H23.5V2.4H7.5V0H5.1V2.4H3.6C1.6 2.4 0 4.1 0 6.1V27.4C0 29.4 1.6 31 3.6 31H27.3C29.3 31 30.9 29.4 30.9 27.4V6.1C31 4.1 29.4 2.4 27.4 2.4ZM28.6 27.4C28.6 28.1 28.1 28.6 27.4 28.6H3.6C2.9 28.6 2.4 28.1 2.4 27.4V11.4H28.6V27.4ZM28.6 9H2.4V6.1C2.4 5.4 2.9 4.9 3.6 4.9H5.1V7.3H7.5V4.8H23.5V7.2H25.9V4.8H27.4C28.1 4.8 28.6 5.3 28.6 6V9Z" fill="#134983"/>
<path d="M6.99961 13.8999H4.59961V16.2999H6.99961V13.8999Z" fill="#134983"/>
<path d="M11.8004 13.8999H9.40039V16.2999H11.8004V13.8999Z" fill="#134983"/>
<path d="M16.6998 13.8999H14.2998V16.2999H16.6998V13.8999Z" fill="#134983"/>
<path d="M21.4996 13.8999H19.0996V16.2999H21.4996V13.8999Z" fill="#134983"/>
<path d="M26.4 13.8999H24V16.2999H26.4V13.8999Z" fill="#134983"/>
<path d="M6.99961 18.7998H4.59961V21.1998H6.99961V18.7998Z" fill="#134983"/>
<path d="M11.8004 18.7998H9.40039V21.1998H11.8004V18.7998Z" fill="#134983"/>
<path d="M16.6998 18.7998H14.2998V21.1998H16.6998V18.7998Z" fill="#134983"/>
<path d="M21.4996 18.7998H19.0996V21.1998H21.4996V18.7998Z" fill="#134983"/>
<path d="M6.99961 23.6001H4.59961V26.0001H6.99961V23.6001Z" fill="#134983"/>
<path d="M11.8004 23.6001H9.40039V26.0001H11.8004V23.6001Z" fill="#134983"/>
<path d="M16.6998 23.6001H14.2998V26.0001H16.6998V23.6001Z" fill="#134983"/>
<path d="M21.4996 23.6001H19.0996V26.0001H21.4996V23.6001Z" fill="#134983"/>
<path d="M26.4 18.7998H24V21.1998H26.4V18.7998Z" fill="#134983"/>
</svg>
