<svg width="69" height="81" viewBox="0 0 69 81" fill="none" xmlns="http://www.w3.org/2000/svg">
<path fill-rule="evenodd" clip-rule="evenodd" d="M55 18.1L58.4 12.2C58.5 12 58.6 11.8 58.6 11.6C58.6 11.2 58.4 10.8 58 10.6L53.2 7.8C53 7.7 52.8 7.6 52.6 7.6C52.2 7.6 51.8 7.8 51.6 8.2L48.2 14.1C45.1 12.8 41.9 11.9 38.5 11.5V7.9H40.9C41.6 7.9 42.1 7.4 42.1 6.7V1.2C42 0.5 41.5 0 40.8 0H28.1C27.4 0 26.9 0.5 26.9 1.2V6.8C26.9 7.5 27.4 8 28.1 8H30.5V11.6C27.2 12 23.9 12.9 20.8 14.2L17.4 8.3C17.2 7.9 16.8 7.7 16.4 7.7C16.2 7.7 16 7.8 15.8 7.9L11 10.5C10.6 10.7 10.4 11.1 10.4 11.5C10.4 11.7 10.5 11.9 10.6 12.1L14 18C5.2 24.6 0 34.9 0 45.8C0 64.8 15.4 80.3 34.5 80.3C53.5 80.3 69 64.9 69 45.8C69 34.9 63.8 24.6 55 18.1ZM55.7 12L53 16.7C52.1 16.1 51.2 15.6 50.2 15.1L53 10.4L55.7 12ZM29.3 2.4H39.7V5.6H29.3V2.4ZM32.9 7.9H36.1V11.3C35.6 11.3 35 11.3 34.5 11.3C34 11.3 33.4 11.3 32.9 11.3V7.9ZM13.2 12L16 10.4L18.7 15.2C17.7 15.7 16.8 16.2 15.9 16.8L13.2 12ZM34.5 77.9C16.8 77.9 2.4 63.5 2.4 45.8C2.4 28.1 16.8 13.7 34.5 13.7C52.2 13.7 66.6 28.1 66.6 45.8C66.6 63.5 52.2 77.9 34.5 77.9ZM57.7 59.1C60 55.1 61.2 50.5 61.2 45.8C61.2 41.1 59.9 36.5 57.6 32.4C57.6 32.4 57.6 32.3 57.5 32.3C57.5 32.3 57.5 32.2 57.4 32.2C55.1 28.3 51.8 25 47.9 22.7L47.8 22.6C47.8 22.6 47.7 22.6 47.7 22.5C43.7 20.2 39.1 19 34.4 19C29.7 19 25.1 20.3 21 22.6C21 22.6 20.9 22.6 20.9 22.7C20.9 22.7 20.8 22.7 20.8 22.8C16.9 25.1 13.6 28.4 11.3 32.3C11.2 32.4 11.2 32.4 11.2 32.5C8.9 36.5 7.7 41.1 7.7 45.8C7.7 50.5 9 55.1 11.3 59.2C11.3 59.2 11.3 59.3 11.4 59.3C11.4 59.3 11.4 59.3 11.5 59.4C13.8 63.3 17.1 66.6 21 68.9L21.1 69H21.2C25.2 71.3 29.8 72.6 34.5 72.6C39.2 72.6 43.9 71.3 48 69H48.1C48.1 69 48.2 69 48.2 68.9C52.1 66.6 55.4 63.3 57.7 59.4C57.7 59.4 57.7 59.4 57.8 59.3C57.7 59.2 57.7 59.1 57.7 59.1ZM47.8 66.2L46.3 63.6C46.1 63.2 45.7 63 45.3 63C44.6 63 44.1 63.5 44.1 64.2C44.1 64.4 44.2 64.6 44.3 64.8L45.8 67.4C42.7 69 39.2 70 35.7 70.2V67.2C35.7 66.5 35.2 66 34.5 66C33.8 66 33.3 66.5 33.3 67.2V70.2C29.8 70 26.4 69.1 23.3 67.5L24.8 64.9C24.9 64.7 24.9 64.5 24.9 64.3C24.9 63.6 24.4 63.1 23.7 63.1C23.3 63.1 22.9 63.3 22.7 63.7L21.2 66.3C18.3 64.4 15.9 62 14 59.1L16.6 57.6C17 57.4 17.2 57 17.2 56.6C17.2 55.9 16.7 55.4 16 55.4C15.8 55.4 15.6 55.5 15.4 55.6L12.8 57.1C11.2 54 10.2 50.5 10 47H13C13.7 47 14.2 46.5 14.2 45.8C14.2 45.1 13.7 44.6 13 44.6H10C10.2 41.1 11.1 37.7 12.7 34.6L15.3 36.1C15.5 36.2 15.7 36.2 15.9 36.2C16.6 36.2 17.1 35.7 17.1 35C17.1 34.6 16.9 34.2 16.5 34L14 32.6C15.9 29.7 18.3 27.3 21.2 25.4L22.7 28C22.9 28.4 23.3 28.6 23.7 28.6C24.4 28.6 24.9 28.1 24.9 27.4C24.9 27.2 24.8 27 24.7 26.8L23.2 24.2C26.3 22.6 29.8 21.6 33.3 21.4V24.4C33.3 25.1 33.8 25.6 34.5 25.6C35.2 25.6 35.7 25.1 35.7 24.4V21.4C39.2 21.6 42.6 22.5 45.7 24.1L44.2 26.7C44 26.9 44 27.1 44 27.3C44 28 44.5 28.5 45.2 28.5C45.6 28.5 46 28.3 46.2 27.9L47.7 25.3C50.6 27.2 53 29.6 54.9 32.5L52.3 34C51.9 34.2 51.7 34.6 51.7 35C51.7 35.7 52.2 36.2 52.9 36.2C53.1 36.2 53.3 36.1 53.5 36L56.1 34.5C57.7 37.6 58.7 41.1 58.9 44.6H55.9C55.2 44.6 54.7 45.1 54.7 45.8C54.7 46.5 55.2 47 55.9 47H58.9C58.7 50.5 57.8 53.9 56.2 57L53.6 55.5C53.4 55.4 53.2 55.3 53 55.3C52.3 55.3 51.8 55.8 51.8 56.5C51.8 56.9 52 57.3 52.4 57.5L55 59C53.1 61.9 50.7 64.3 47.8 66.2ZM52.3 45.8C52.3 45.1 51.8 44.6 51.1 44.6H39.7C39.2 42.6 37.7 41 35.6 40.5V29.1C35.6 28.4 35.1 27.9 34.4 27.9C33.7 27.9 33.2 28.4 33.2 29.1V40.5C30.7 41.1 29 43.2 29 45.8C29 48.8 31.4 51.2 34.4 51.2C36.9 51.2 39.1 49.4 39.7 47H51.1C51.8 47 52.3 46.4 52.3 45.8ZM34.5 48.8C32.8 48.8 31.5 47.4 31.5 45.8C31.5 44.1 32.9 42.8 34.5 42.8C36.1 42.8 37.5 44.2 37.5 45.8C37.5 47.5 36.2 48.8 34.5 48.8Z" fill="white"/>
</svg>
