<svg width="62" height="43" viewBox="0 0 62 43" fill="none" xmlns="http://www.w3.org/2000/svg">
<g clip-path="url(#clip0)">
<path d="M57.3001 16.2L51.6001 4.8C51.3001 4.3 50.8001 4 50.3001 4H41.4001V1.5C41.4001 0.7 40.7001 0 39.9001 0H7.1001C6.2001 0 5.6001 0.7 5.6001 1.5C5.6001 2.3 6.3001 3 7.1001 3H38.5001V17.3C38.5001 18.1 39.2001 18.8 40.0001 18.8H55.6001L58.7001 22.8V33.6H54.0001L53.9001 33.2C53.1001 29.9 50.1001 27.6 46.7001 27.6C43.3001 27.6 40.4001 29.9 39.5001 33.2L39.4001 33.6H27.1001L27.0001 33.2C26.2001 29.9 23.2001 27.6 19.8001 27.6C16.4001 27.6 13.5001 29.9 12.6001 33.2L12.5001 33.6H7.1001C6.3001 33.6 5.6001 34.3 5.6001 35.1C5.6001 35.9 6.3001 36.6 7.1001 36.6H12.6001L12.7001 37C13.6001 40.2 16.5001 42.5 19.8001 42.5C23.1001 42.5 26.1001 40.2 26.9001 37L27.0001 36.6H39.5001L39.6001 37C40.5001 40.2 43.4001 42.5 46.7001 42.5C50.0001 42.5 53.0001 40.2 53.8001 37L53.9001 36.6H60.0001C60.8001 36.6 61.5001 35.9 61.5001 35.1V22.2C61.5001 21.9 61.4001 21.6 61.2001 21.3L57.3001 16.2ZM41.4001 15.8V6.9H49.4001L53.9001 15.8H41.4001ZM19.8001 39.4C17.3001 39.4 15.4001 37.4 15.4001 35C15.4001 32.6 17.4001 30.6 19.8001 30.6C22.2001 30.6 24.2001 32.6 24.2001 35C24.2001 37.4 22.3001 39.4 19.8001 39.4ZM46.8001 39.4C44.3001 39.4 42.4001 37.4 42.4001 35C42.4001 32.6 44.4001 30.6 46.8001 30.6C49.2001 30.6 51.2001 32.6 51.2001 35C51.2001 37.4 49.2001 39.4 46.8001 39.4Z" fill="#134983"/>
<path d="M15.2 25.0996C15.2 24.2996 14.5 23.5996 13.7 23.5996H4.69995C3.89995 23.5996 3.19995 24.2996 3.19995 25.0996C3.19995 25.8996 3.89995 26.5996 4.69995 26.5996H13.8C14.6 26.4996 15.2 25.8996 15.2 25.0996Z" fill="#134983"/>
<path d="M19.8 17.3008C19.8 16.5008 19.1 15.8008 18.3 15.8008H1.5C0.7 15.8008 0 16.5008 0 17.3008C0 18.1008 0.7 18.8008 1.5 18.8008H18.3C19.1 18.8008 19.8 18.1008 19.8 17.3008Z" fill="#134983"/>
<path d="M4.69995 11H21.5C22.2999 11 23 10.3 23 9.5C23 8.7 22.2999 8 21.5 8H4.69995C3.89995 8 3.19995 8.7 3.19995 9.5C3.19995 10.3 3.89995 11 4.69995 11Z" fill="#134983"/>
</g>
<defs>
<clipPath id="clip0">
<rect width="61.6" height="42.4" fill="white"/>
</clipPath>
</defs>
</svg>
