<svg width="45" height="45" viewBox="0 0 45 45" fill="none" xmlns="http://www.w3.org/2000/svg">
<path d="M24.8395 21.8156C24.5582 21.7687 24.2769 21.75 24.005 21.75H21.0044C18.1069 21.7594 15.7626 24.1031 15.7533 27V32.25C15.7533 33.075 16.4284 33.75 17.2536 33.75H27.7558C28.5809 33.75 29.2561 33.075 29.2561 32.25V27C29.2655 24.4219 27.3901 22.2187 24.8395 21.8156ZM23.6112 23.25L22.5047 25.8375L21.3982 23.25H23.6112ZM17.2536 27C17.2536 25.3781 18.2944 23.9344 19.8416 23.4469L21.7451 27.9094V32.25H17.2442V27H17.2536ZM27.7558 32.2406H23.2548V27.8906L25.1677 23.4281C26.7149 23.925 27.7651 25.3594 27.7558 26.9906V32.2406Z" fill="#134983"/>
<path d="M24.7549 26.25H26.2552V27.75H24.7549V26.25Z" fill="#134983"/>
<path d="M26.2558 18V16.5C26.6684 16.5 27.006 16.1625 27.006 15.75V15C27.006 12.9281 25.3275 11.25 23.2552 11.25H21.7549C19.6826 11.25 18.0041 12.9281 18.0041 15V15.75C18.0041 16.1625 18.3417 16.5 18.7542 16.5V18C18.7542 20.0719 20.4327 21.75 22.505 21.75C24.5773 21.75 26.2558 20.0719 26.2558 18ZM21.7549 12.7594H23.2552C24.5023 12.7594 25.5057 13.7625 25.5057 15.0094H22.6832L21.3423 14.3344C21.0516 14.1937 20.7047 14.25 20.4796 14.475L19.9451 15.0094H19.5044C19.5044 13.7625 20.5171 12.7594 21.7549 12.7594ZM22.505 20.25C21.2673 20.25 20.2546 19.2469 20.2546 18V16.5C20.4515 16.5 20.6484 16.425 20.789 16.2844L21.1547 15.9187L22.1675 16.425C22.2706 16.4812 22.3831 16.5 22.505 16.5H24.7555V18C24.7555 19.2469 23.7428 20.25 22.505 20.25Z" fill="#134983"/>
<path d="M21.7542 5.90625V9.75937H23.2545V5.90625C24.7173 5.53125 25.6738 4.125 25.4768 2.625C25.2893 1.125 24.014 0 22.5043 0C20.9947 0 19.7194 1.125 19.5319 2.625C19.3349 4.11562 20.2914 5.52187 21.7542 5.90625ZM22.5043 1.50938C23.3295 1.50938 24.0047 2.18437 24.0047 3.00937C24.0047 3.83437 23.3295 4.50937 22.5043 4.50937C21.6792 4.50937 21.004 3.83437 21.004 3.00937C21.004 2.18437 21.6792 1.50938 22.5043 1.50938Z" fill="#134983"/>
<path d="M11.7212 8.71855C11.7212 7.92168 11.4118 7.1623 10.8398 6.5998C9.65826 5.46543 7.78287 5.46543 6.60137 6.5998C5.52302 7.65918 5.4105 9.36543 6.33882 10.5561C7.26714 11.7561 8.93623 12.0654 10.2396 11.2967L12.9683 14.0248L14.0279 12.9654L11.2992 10.2373C11.5712 9.77793 11.7212 9.25293 11.7212 8.71855ZM7.66097 9.77793C7.0796 9.19668 7.0796 8.24043 7.66097 7.65918C8.24234 7.07793 9.19879 7.07793 9.78016 7.65918C10.3615 8.24043 10.3615 9.19668 9.78016 9.77793C9.18941 10.3404 8.25172 10.3404 7.66097 9.77793Z" fill="#134983"/>
<path d="M23.2545 39.0938V35.2407H21.7542V39.0938C20.2914 39.4688 19.3349 40.8751 19.5319 42.3751C19.7194 43.8751 20.9947 45.0001 22.5043 45.0001C24.014 45.0001 25.2893 43.8751 25.4768 42.3751C25.6738 40.8845 24.7173 39.4782 23.2545 39.0938ZM22.5043 43.4907C21.6792 43.4907 21.004 42.8157 21.004 41.9907C21.004 41.1657 21.6792 40.4907 22.5043 40.4907C23.3295 40.4907 24.0047 41.1657 24.0047 41.9907C24.0047 42.8157 23.3295 43.4907 22.5043 43.4907Z" fill="#134983"/>
<path d="M34.7787 33.7125L32.05 30.9844L30.9904 32.0437L33.7191 34.7719C32.9315 36.1125 33.3066 37.8281 34.5724 38.7281C35.8383 39.6281 37.5824 39.4031 38.5858 38.2125C39.5891 37.0219 39.5141 35.2687 38.4076 34.1719C37.4324 33.2344 35.9602 33.0469 34.7787 33.7125ZM37.348 37.3406C36.7573 37.9031 35.8196 37.9031 35.2288 37.3406C34.6475 36.7594 34.6475 35.8031 35.2288 35.2219C35.8102 34.6406 36.7667 34.6406 37.348 35.2219C37.9388 35.8031 37.9388 36.7594 37.348 37.3406Z" fill="#134983"/>
<path d="M41.9994 19.5C40.6397 19.5094 39.4488 20.4281 39.1113 21.75H35.2574V23.25H39.1019C39.4957 24.7594 40.9773 25.7062 42.5057 25.4437C44.0342 25.1812 45.1125 23.7844 44.9812 22.2375C44.85 20.6906 43.556 19.5 41.9994 19.5ZM41.9994 24C41.1742 24 40.4991 23.325 40.4991 22.5C40.4991 21.675 41.1742 21 41.9994 21C42.8245 21 43.4997 21.675 43.4997 22.5C43.4997 23.325 42.8245 24 41.9994 24Z" fill="#134983"/>
<path d="M9.76141 23.2499V21.7499H5.90748C5.5324 20.2874 4.12586 19.3312 2.62555 19.5281C1.12523 19.7156 0 20.9906 0 22.4999C0 24.0093 1.12523 25.2843 2.62555 25.4718C4.12586 25.6593 5.5324 24.7125 5.90748 23.2499H9.76141ZM3.01 23.9999C2.18483 23.9999 1.50969 23.3249 1.50969 22.4999C1.50969 21.6749 2.18483 20.9999 3.01 20.9999C3.83517 20.9999 4.51031 21.6749 4.51031 22.4999C4.51031 23.3249 3.83517 23.9999 3.01 23.9999Z" fill="#134983"/>
<path d="M12.9593 30.9844L10.2306 33.7125C9.04909 33.0469 7.5769 33.2344 6.6017 34.1625C5.48584 35.2594 5.40145 37.0406 6.40479 38.2406C7.40812 39.4406 9.17099 39.6656 10.4556 38.7656C11.7309 37.8563 12.106 36.1219 11.2996 34.7719L14.0282 32.0437L12.9593 30.9844ZM9.78049 37.3406C9.18974 37.9031 8.25204 37.9031 7.6613 37.3406C7.07993 36.7594 7.07993 35.8031 7.6613 35.2219C8.24267 34.6406 9.19912 34.6406 9.78049 35.2219C10.3619 35.8031 10.3619 36.7594 9.78049 37.3406Z" fill="#134983"/>
<path d="M32.05 14.0154L34.7787 11.2873C36.0821 12.0561 37.7419 11.7373 38.6702 10.5467C39.5891 9.35605 39.486 7.65918 38.417 6.5998C37.2261 5.46543 35.3601 5.46543 34.1786 6.5998C33.2034 7.56543 33.0159 9.06543 33.7191 10.2373L30.9904 12.9654L32.05 14.0154ZM35.2288 7.65918C35.8102 7.07793 36.7666 7.07793 37.348 7.65918C37.9294 8.24043 37.9294 9.19668 37.348 9.77793C36.7573 10.3404 35.8196 10.3404 35.2288 9.77793C34.6475 9.19668 34.6475 8.24043 35.2288 7.65918Z" fill="#134983"/>
</svg>
