<svg width="57" height="57" viewBox="0 0 57 57" fill="none" xmlns="http://www.w3.org/2000/svg">
<path d="M57 56.7817V39.0726L53.1617 36.1881L51.978 33.2347C51.5643 32.1889 50.9437 31.2581 50.1508 30.4536L44.129 24.4433V4.59677C44.129 2.05706 42.072 0 39.5323 0H10.1129C7.57319 0 5.51613 2.05706 5.51613 4.59677V26.1212L2.97641 28.6609C1.05726 30.58 0 33.1427 0 35.8548C0 36.4065 0.0459677 36.9696 0.137903 37.5212L1.5629 46.1056C1.75827 47.3008 2.09153 48.473 2.53972 49.5877L3.67742 52.4262V57H16.5484V52.5756L17.1804 50.9897C17.3528 50.5415 17.5137 50.0933 17.6516 49.6452H45.1058L57 56.7817ZM55.1613 53.5409L43.7728 46.7032L52.4837 37.9923L55.1613 39.9919V53.5409ZM50.2657 33.9242L51.323 36.5558L41.9686 45.9103L38.0498 45.3472C36.8661 45.1748 35.7629 44.6806 34.8436 43.9222L32.9819 42.3708C31.9476 41.5089 30.7294 40.9228 29.4308 40.647V40.4516H27.6841H27.5462C27.0635 40.4516 26.6728 40.0609 26.6728 39.5782C26.6728 39.2794 26.8222 39.0151 27.0635 38.8427L27.4083 38.6129C28.3161 38.0153 29.3619 37.6936 30.4536 37.6936C31.9246 37.6936 33.3036 38.2681 34.3379 39.3024L35.2228 40.1873L36.5214 38.8887L35.6365 38.0038L23.2827 25.6615C23.0873 25.4661 22.9839 25.2133 22.9839 24.9375C22.9839 24.3744 23.4435 23.9032 24.0181 23.9032C24.294 23.9032 24.5468 24.0067 24.7421 24.202L32.097 31.5569L36.1192 35.579L37.4177 34.2804L33.3956 30.2583C33.2002 30.0629 33.0968 29.7986 33.0968 29.5343C33.0968 28.9712 33.5565 28.5 34.1311 28.5C34.4069 28.5 34.6597 28.6034 34.855 28.7988L38.8772 32.821L40.1758 31.5224L36.1536 27.5002C35.9583 27.3048 35.8548 27.052 35.8548 26.7762C35.8548 26.2131 36.3145 25.7419 36.8891 25.7419C37.1649 25.7419 37.4177 25.8454 37.6131 26.0407L39.4518 27.8794L41.6353 30.0629L42.9339 28.7643L40.7504 26.5808C40.555 26.3855 40.4516 26.1327 40.4516 25.8569C40.4516 25.2938 40.9113 24.8226 41.4859 24.8226C41.7617 24.8226 42.0145 24.926 42.2099 25.1214L48.8407 31.7522C49.4613 32.3843 49.944 33.1083 50.2657 33.9242ZM27.5347 42.2903H27.5806V44.129H22.0645V42.2903H27.5347ZM17.6861 34.9355H22.0645V29.4194H16.5484V32.0165C16.0083 31.5569 15.3073 31.2581 14.5488 31.2581C13.1353 31.2581 11.9056 32.2119 11.5609 33.5909L11.0323 35.7399V9.19355H38.6129V24.5008C38.1188 24.1216 37.5212 23.9032 36.8891 23.9032C35.3377 23.9032 34.0851 25.1329 34.0276 26.6728C32.9014 26.7188 31.9476 27.3968 31.5109 28.3736L26.0407 22.9034C25.9488 22.8115 25.8454 22.731 25.7419 22.6506V11.0323H12.871V23.9032H21.3405C21.2141 24.225 21.1452 24.5698 21.1452 24.9375C21.1452 25.2133 21.2026 25.4891 21.2716 25.7419H12.871V27.5806H22.6046L24.4433 29.4194H23.9032V34.9355H29.4194V34.3954L30.9018 35.8778C30.7524 35.8663 30.603 35.8548 30.4421 35.8548C29.201 35.8548 28.0058 36.1766 26.9256 36.7742H17.824L17.6861 34.9355ZM18.3871 33.0968V31.2581H20.2258V33.0968H18.3871ZM18.3871 12.871H20.2258V14.7097H18.3871V12.871ZM22.0645 16.5484V12.871H23.9032V22.0645H14.7097V12.871H16.5484V16.5484H22.0645ZM25.7419 31.2581H26.2821L27.5806 32.5567V33.0968H25.7419V31.2581ZM7.35484 4.59677C7.35484 3.07984 8.59597 1.83871 10.1129 1.83871H39.5323C41.0492 1.83871 42.2903 3.07984 42.2903 4.59677V23.1103C42.026 23.0298 41.7617 22.9839 41.4859 22.9839C41.1181 22.9839 40.7734 23.0643 40.4516 23.1792V7.35484H9.19355V41.1067C9.07863 41.3595 8.96371 41.6123 8.8373 41.8651C8.6994 42.1294 8.43508 42.3018 8.13629 42.3018C7.6996 42.3018 7.35484 41.9456 7.35484 41.5204V4.59677ZM14.7097 55.1613H5.51613V53.3226H14.7097V55.1613ZM15.4796 50.3117L15.0085 51.4839H5.28629L4.25202 48.9097C3.8498 47.9099 3.5625 46.8641 3.37863 45.8069L1.95363 37.2224C1.88468 36.7742 1.83871 36.3145 1.83871 35.8548C1.83871 33.6254 2.7006 31.5339 4.275 29.9595L5.51613 28.7298V41.5089C5.51613 42.9569 6.68831 44.129 8.13629 44.129C9.13609 44.129 10.0325 43.5774 10.4806 42.681C11.423 40.8079 12.147 38.8198 12.6641 36.7972L13.3536 34.0391C13.4915 33.4875 13.9857 33.1083 14.5488 33.1083C15.1923 33.1083 15.7325 33.6139 15.7784 34.246L16.5024 43.6004C16.5254 43.9796 16.5484 44.3704 16.5484 44.7496C16.5484 46.6573 16.1921 48.5304 15.4796 50.3117ZM18.0998 47.8065C18.2837 46.7952 18.3871 45.7724 18.3871 44.7381C18.3871 44.3014 18.3756 43.8762 18.3411 43.451L17.9734 38.6129H25.0294C24.9145 38.9232 24.8341 39.2335 24.8341 39.5782C24.8341 39.8885 24.8915 40.1758 24.995 40.4516H20.2258V45.9677H29.4194V42.5546C30.2812 42.796 31.0972 43.1982 31.7982 43.7843L33.6599 45.3357C34.8435 46.324 36.2685 46.9561 37.7855 47.1744L41.9686 47.772L42.026 47.8065H18.0998Z" fill="#134983"/>
</svg>
