<svg width="17" height="16" viewBox="0 0 17 16" fill="none" xmlns="http://www.w3.org/2000/svg">
<g clip-path="url(#clip0)">
<path d="M16.6447 16H0.355273C0.159375 16 0 15.8435 0 15.6511C0 15.4588 0.159375 15.3022 0.355273 15.3022H16.648C16.8439 15.3022 17.0033 15.4588 17.0033 15.6511C17 15.8435 16.8406 16 16.6447 16Z" fill="#0A2A4F"/>
<path d="M4.60532 16H1.06255C0.86665 16 0.707275 15.8435 0.707275 15.6511V11.8264C0.707275 11.4416 1.02603 11.1318 1.4145 11.1318H4.25005C4.64185 11.1318 4.95728 11.4449 4.95728 11.8264V15.6511C4.95728 15.8435 4.80122 16 4.60532 16ZM1.41782 15.3022H4.25005V11.8264H1.41782V15.3022Z" fill="#0A2A4F"/>
<path d="M10.2697 16H6.73027C6.53438 16 6.375 15.8435 6.375 15.6511V7.65277C6.375 7.26801 6.69375 6.95825 7.08223 6.95825H9.91446C10.3063 6.95825 10.6217 7.27127 10.6217 7.65277V15.6511C10.625 15.8435 10.4656 16 10.2697 16ZM7.08223 15.3022H9.91446V7.65277H7.08223V15.3022Z" fill="#0A2A4F"/>
<path d="M15.9376 16.0001H12.3948C12.1989 16.0001 12.0396 15.8436 12.0396 15.6512V3.47919C12.0396 3.09443 12.3583 2.78467 12.7468 2.78467H15.579C15.9708 2.78467 16.2862 3.09769 16.2862 3.47919V15.6512C16.2929 15.8436 16.1335 16.0001 15.9376 16.0001ZM12.7501 15.3023H15.5823V3.47919H12.7501V15.3023Z" fill="#0A2A4F"/>
<path d="M1.76978 6.95488C1.68013 6.95488 1.58716 6.92228 1.51743 6.8538C1.37798 6.71686 1.37798 6.49839 1.51743 6.36145L7.89243 0.101001C8.03188 -0.0359458 8.25435 -0.0359458 8.3938 0.101001C8.53325 0.237949 8.53325 0.456412 8.3938 0.593359L2.0188 6.8538C1.95239 6.92228 1.86274 6.95488 1.76978 6.95488Z" fill="#0A2A4F"/>
<path d="M8.14478 3.47911C7.94888 3.47911 7.7895 3.3226 7.7895 3.13022V0.694518H5.31255C5.11665 0.694518 4.95728 0.538007 4.95728 0.345629C4.95728 0.15325 5.11665 0 5.31255 0H8.14478C8.34067 0 8.50005 0.156511 8.50005 0.348889V3.13022C8.50005 3.3226 8.34067 3.47911 8.14478 3.47911Z" fill="#0A2A4F"/>
</g>
<defs>
<clipPath id="clip0">
<rect width="17" height="16" fill="white"/>
</clipPath>
</defs>
</svg>
