<svg width="48" height="48" viewBox="0 0 48 48" fill="none" xmlns="http://www.w3.org/2000/svg">
<path fill-rule="evenodd" clip-rule="evenodd" d="M45.5541 21.5847C45.2484 12.7185 39.5006 4.95287 31.1236 2.01783C31.0013 0.856051 29.9618 0 28.8 0H19.2C18.0382 0 16.9987 0.856051 16.8153 2.01783C8.43822 4.95287 2.75159 12.7185 2.44586 21.5847H2.38471C1.03949 21.5847 0 22.6854 0 23.9694V25.5592C0 26.9045 1.10064 27.944 2.38471 27.944H45.5541C46.8994 27.944 47.9389 26.8433 47.9389 25.5592V23.9694C48 22.6854 46.8994 21.5847 45.5541 21.5847ZM16.8153 3.72994V17.549C16.8153 17.9771 17.1822 18.3439 17.6102 18.3439C18.0382 18.3439 18.4051 17.9771 18.4051 17.549V2.38471C18.4051 1.95669 18.772 1.58981 19.2 1.58981H23.1745V19.2C23.1745 19.628 23.5414 19.9949 23.9694 19.9949C24.3975 19.9949 24.7643 19.628 24.7643 19.2V1.58981H28.7389C29.1669 1.58981 29.5338 1.95669 29.5338 2.38471V17.549C29.5338 17.9771 29.9006 18.3439 30.3287 18.3439C30.7567 18.3439 31.1236 17.9771 31.1236 17.549V3.72994C38.5834 6.60382 43.5975 13.5745 43.9032 21.5847H4.03567C4.3414 13.6357 9.35541 6.60382 16.8153 3.72994ZM46.4102 25.6204C46.4102 26.0484 46.0433 26.4153 45.6153 26.4153H2.38471C1.95669 26.4153 1.58981 26.0484 1.58981 25.6204V24.0306C1.58981 23.6025 1.95669 23.2357 2.38471 23.2357H45.5541C45.9822 23.2357 46.349 23.6025 46.349 24.0306V25.6204H46.4102Z" fill="#134983"/>
<path fill-rule="evenodd" clip-rule="evenodd" d="M19.9949 35.1592H9.60004C8.25482 35.1592 7.21533 36.2598 7.21533 37.5439V40.7235C7.21533 41.1515 7.58221 41.5184 8.01024 41.5184C8.43826 41.5184 8.80514 41.1515 8.80514 40.7235V37.5439C8.80514 37.1159 9.17202 36.749 9.60004 36.749H19.9949C20.423 36.749 20.7899 36.3821 20.7899 35.9541C20.7899 35.5261 20.423 35.1592 19.9949 35.1592Z" fill="#134983"/>
<path fill-rule="evenodd" clip-rule="evenodd" d="M47.2051 35.1591H43.9032C43.5363 33.3247 41.8853 31.9795 39.9898 31.9795H8.01019C5.80892 31.9795 4.03567 33.7527 4.03567 35.954H0.794904C0.366879 35.954 0 36.3209 0 36.7489V43.1693C0 43.5973 0.366879 43.9642 0.794904 43.9642H4.21911C4.95287 46.3489 7.09299 47.9387 9.6 47.9387H14.3694C18.0382 47.9387 21.4013 45.982 23.2968 42.8636C23.5414 42.4967 24.0306 42.3744 24.3975 42.619C24.5197 42.6801 24.5809 42.7413 24.642 42.8636C26.5376 45.982 29.9006 47.9387 33.5694 47.9387H38.3389C41.0904 47.9387 43.4752 45.9209 43.9032 43.1693H47.1439C47.572 43.1693 47.9389 42.8024 47.9389 42.3744V36.0152C48 35.526 47.6331 35.1591 47.2051 35.1591ZM3.97452 42.3744H1.58981V39.9897H3.97452V42.3744ZM3.97452 38.3999H1.58981V37.605H3.97452V38.3999ZM42.3745 42.3744C42.3745 44.5757 40.6013 46.3489 38.4 46.3489H33.6306C30.5121 46.3489 27.6382 44.698 26.0484 42.0687C25.3758 40.968 23.9083 40.6011 22.7465 41.2738C22.4408 41.4572 22.135 41.7629 21.9516 42.0687C20.3618 44.698 17.4879 46.3489 14.3694 46.3489H9.6C7.39873 46.3489 5.62548 44.5757 5.62548 42.3744V36.0152C5.62548 34.6699 6.72611 33.6304 8.01019 33.6304H39.9898C41.335 33.6304 42.3745 34.7311 42.3745 36.0152V42.3744ZM46.4102 41.5795H44.0255V39.1948H46.4102V41.5795ZM46.4102 37.605H44.0255V36.8101H46.4102V37.605Z" fill="#134983"/>
<path fill-rule="evenodd" clip-rule="evenodd" d="M24.7645 35.1592H23.1747C22.7466 35.1592 22.3798 35.5261 22.3798 35.9541C22.3798 36.3821 22.7466 36.749 23.1747 36.749H24.7645C25.1925 36.749 25.5594 36.3821 25.5594 35.9541C25.6205 35.5261 25.2536 35.1592 24.7645 35.1592Z" fill="#134983"/>
</svg>
