<svg width="52" height="52" viewBox="0 0 52 52" fill="none" xmlns="http://www.w3.org/2000/svg">
<path fill-rule="evenodd" clip-rule="evenodd" d="M36.1568 48.0556L37.1429 49.0417L39.641 46.5436C39.7724 46.4121 39.8382 46.2149 39.8382 46.0834C39.8382 45.8862 39.7724 45.7547 39.641 45.6233L37.1429 43.1252L36.1568 44.1113L37.4716 45.426H27.5449V45.2946C27.1504 42.402 24.6523 40.2326 21.6941 40.2326C18.4071 40.2326 15.7775 42.8622 15.7775 46.1492C15.7775 49.4362 18.4071 52.0657 21.6941 52.0657C24.6523 52.0657 27.1504 49.8963 27.5449 47.0038V46.8723H37.4716L36.1568 48.0556ZM21.6283 41.5474C24.1264 41.5474 26.1643 43.5853 26.1643 46.0834C26.1643 48.5815 24.1264 50.6195 21.6283 50.6195C19.1302 50.6195 17.0923 48.5815 17.0923 46.0834C17.0923 43.5853 19.1302 41.5474 21.6283 41.5474ZM46.0834 52C49.3704 52 52 49.3704 52 46.0834C52 42.7965 49.3704 40.1669 46.0834 40.1669C42.7965 40.1669 40.1669 42.7965 40.1669 46.0834C40.1669 49.3704 42.7965 52 46.0834 52ZM46.0834 41.5474C48.5815 41.5474 50.6195 43.5853 50.6195 46.0834C50.6195 48.5815 48.5815 50.6195 46.0834 50.6195C43.5853 50.6195 41.5474 48.5815 41.5474 46.0834C41.5474 43.5853 43.5853 41.5474 46.0834 41.5474ZM11.7016 48.0556L12.6877 49.0417L15.1858 46.5436C15.3173 46.4121 15.3831 46.2149 15.3831 46.0834C15.3831 45.8862 15.3173 45.7547 15.1858 45.6233L12.6877 43.1252L11.7016 44.1113L13.0164 45.426H10.7155C5.58786 45.426 1.38053 41.2187 1.38053 36.091C1.38053 30.9633 5.58786 26.756 10.7155 26.756H12.2276V26.8875C12.622 29.78 15.1201 31.9494 18.0784 31.9494C21.3654 31.9494 23.9949 29.3198 23.9949 26.0329C23.9949 22.7459 21.3654 20.1163 18.0784 20.1163C15.1201 20.1163 12.622 22.2857 12.2276 25.1783V25.3097H10.7155C4.79899 25.3097 0 30.1087 0 36.0253C0 41.9418 4.79899 46.7408 10.7155 46.7408H13.0164L11.7016 48.0556ZM18.1441 30.5689C15.646 30.5689 13.6081 28.531 13.6081 26.0329C13.6081 23.5348 15.646 21.4968 18.1441 21.4968C20.6422 21.4968 22.6802 23.5348 22.6802 26.0329C22.6802 28.531 20.6422 30.5689 18.1441 30.5689ZM21.3654 2.95828L20.445 3.94437L21.7598 5.25917H11.8331V5.12769C11.3729 2.16941 8.87484 0 5.91656 0C2.62958 0 0 2.62958 0 5.91656C0 9.20354 2.62958 11.8331 5.91656 11.8331C8.87484 11.8331 11.3729 9.66372 11.7674 6.77118V6.6397H21.6941L20.3793 7.95449L21.3654 8.94058L23.8635 6.44248C23.9949 6.311 24.0607 6.11378 24.0607 5.9823C24.0607 5.78508 23.9949 5.6536 23.8635 5.52212L21.3654 2.95828ZM5.91656 10.4526C3.41846 10.4526 1.38053 8.41467 1.38053 5.91656C1.38053 3.41846 3.41846 1.38053 5.91656 1.38053C8.41467 1.38053 10.4526 3.41846 10.4526 5.91656C10.4526 8.41467 8.41467 10.4526 5.91656 10.4526ZM28.1365 23.9949L27.1504 23.0089L24.6523 25.507C24.5209 25.6384 24.4551 25.8357 24.4551 25.9671C24.4551 26.1644 24.5209 26.2958 24.6523 26.4273L27.1504 28.9254L28.1365 27.9393L26.8217 26.6245H41.2845C47.201 26.6245 52 21.8255 52 15.909C52 9.99242 47.201 5.25917 41.2845 5.25917H36.2225V5.12769C35.8281 2.16941 33.33 0 30.3717 0C27.0847 0 24.4551 2.62958 24.4551 5.91656C24.4551 9.20354 27.0847 11.8331 30.3717 11.8331C33.33 11.8331 35.8281 9.66372 36.2225 6.77118V6.6397H41.2845C46.4121 6.6397 50.6195 10.847 50.6195 15.9747C50.6195 21.1024 46.4121 25.3097 41.2845 25.3097H26.8217L28.1365 23.9949ZM30.3717 10.4526C27.8736 10.4526 25.8357 8.41467 25.8357 5.91656C25.8357 3.41846 27.8736 1.38053 30.3717 1.38053C32.8698 1.38053 34.9077 3.41846 34.9077 5.91656C34.9077 8.41467 32.8698 10.4526 30.3717 10.4526Z" fill="#134A83"/>
</svg>
