<svg width="54" height="46" viewBox="0 0 54 46" fill="none" xmlns="http://www.w3.org/2000/svg">
<path fill-rule="evenodd" clip-rule="evenodd" d="M27 36.4287C28.8701 36.4287 30.8571 36.1967 32.6104 35.5586C33.7208 35.1526 35.2403 34.3985 35.6493 33.1803C35.7078 32.9483 35.7662 32.7163 35.7662 32.5422V26.2774L40.6753 24.0731V35.6747C40.6753 36.0807 41.026 36.4287 41.4351 36.4287C41.8442 36.4287 42.1948 36.0807 42.1948 35.6747V22.971C42.1948 22.681 42.0195 22.3909 41.7273 22.2749L27.3506 15.8941C27.1753 15.8361 26.9416 15.8361 26.7662 15.8941L12.2727 22.3329C11.9805 22.4489 11.8636 22.739 11.8636 23.029C11.8636 23.319 12.039 23.5511 12.2727 23.7251L18.2338 26.3354V32.6003C18.2338 32.8323 18.2922 33.0643 18.3506 33.2383C18.7597 34.4565 20.2208 35.2106 21.3896 35.6166C23.1429 36.1967 25.1883 36.4287 27 36.4287ZM34.3052 32.5422C34.3052 33.2963 32.9026 33.9344 32.3182 34.1665C30.6818 34.8045 28.7532 35.0366 27 35.0366C25.2468 35.0366 23.3182 34.8045 21.6818 34.1665C21.0974 33.9344 19.6948 33.2963 19.6948 32.5422V26.9735L26.6493 30.0479C26.7662 30.1059 26.8247 30.1059 26.9416 30.1059C27.0584 30.1059 27.1753 30.1059 27.2338 30.0479L34.1883 26.9735V32.5422H34.3052ZM14.4351 22.971L27.0584 17.4023L39.6818 22.971L27.0584 28.5397L14.4351 22.971ZM53.2987 0H0.75974C0.350649 0 0 0.348045 0 0.754098V45.2459C0 45.652 0.350649 46 0.75974 46H22.2078C22.6169 46 22.9675 45.652 22.9675 45.2459C22.9675 44.8398 22.6169 44.4918 22.2078 44.4918H1.46104V11.0214H52.539V44.5498H31.7922C31.3831 44.5498 31.0325 44.8979 31.0325 45.3039C31.0325 45.71 31.3831 46.058 31.7922 46.058H53.2403C53.6493 46.058 54 45.71 54 45.3039V0.754098C54 0.348045 53.7078 0 53.2987 0ZM52.539 9.51324H1.46104V1.45019H32.6688V3.88651C32.6688 4.29256 33.0195 4.6406 33.4286 4.6406C33.8377 4.6406 34.1883 4.29256 34.1883 3.88651V1.45019H39.0974V3.88651C39.0974 4.29256 39.448 4.6406 39.8571 4.6406C40.2662 4.6406 40.6169 4.29256 40.6169 3.88651V1.45019H45.526V3.88651C45.526 4.29256 45.8766 4.6406 46.2857 4.6406C46.6948 4.6406 47.0455 4.29256 47.0455 3.88651V1.45019H52.5974V9.51324H52.539ZM27.7597 45.2459C27.7597 44.8398 27.4091 44.4918 27 44.4918C26.5909 44.4918 26.2403 44.8398 26.2403 45.2459C26.2403 45.652 26.5909 46 27 46C27.4091 46 27.7597 45.652 27.7597 45.2459Z" fill="#134983"/>
</svg>
