<svg width="37" height="56" viewBox="0 0 37 56" fill="none" xmlns="http://www.w3.org/2000/svg">
<path fill-rule="evenodd" clip-rule="evenodd" d="M34.1092 39.2231C34.1092 41.7107 32.0857 43.6776 29.6576 43.6776C27.1717 43.6776 25.2061 41.6528 25.2061 39.2231C25.2061 36.7933 27.1717 34.7107 29.5998 34.7107C32.0857 34.7107 34.1092 36.7355 34.1092 39.2231ZM26.6514 39.2231C26.6514 40.8429 27.9811 42.2314 29.6576 42.2314C31.2764 42.2314 32.6639 40.9008 32.6639 39.2231C32.6639 37.6033 31.3342 36.2148 29.6576 36.2148C27.9811 36.2148 26.6514 37.5454 26.6514 39.2231Z" fill="#134983"/>
<path fill-rule="evenodd" clip-rule="evenodd" d="M3.87344 0H30.8719C33.0109 0 34.7453 1.73554 34.7453 3.87603C34.7453 13.8843 34.7453 23.8347 34.7453 33.843C35.3234 33.9587 35.7859 35.405 35.6125 35.4628C36.3641 35.8678 36.9422 36.6198 37 37.2562C37.0578 37.9504 36.5953 38.6446 36.5375 39.2231C36.4797 39.7438 37.3469 40.9587 36.8266 41.8264C36.5375 42.2893 35.9594 42.5785 35.7281 42.8099C34.7453 43.562 34.9188 44.314 34.8031 44.6033V44.8926H30.525C31.3344 44.314 31.6234 44.2562 32.7219 44.314C33.5312 44.314 33.3578 44.2562 33.7625 43.0992C34.0516 42.3471 34.3406 42.0578 34.9766 41.6529C35.6703 41.1901 35.6703 41.1901 35.3813 40.438C34.8609 39.0496 35.15 38.8182 35.4969 37.6612C35.6125 37.1983 35.6125 37.2562 34.7453 36.6198C33.4156 35.6364 33.7625 34.6529 33.3578 34.1901C33.2422 34.0744 32.7797 34.1322 32.6063 34.1322C31.7391 34.1322 31.3344 34.1322 30.6984 33.6116C29.7156 32.9174 29.8312 32.7438 29.0797 33.3802C28.2703 34.0165 27.9234 34.1322 26.8828 34.0744C26.1313 34.0744 26.0734 34.0744 25.9578 34.4793C25.5531 35.5785 25.6687 35.9256 24.4547 36.7355C24.2234 36.9091 23.9344 37.0826 23.8766 37.2562C23.8766 37.4298 23.8187 37.4297 24.05 37.9504C24.3969 38.9917 24.3969 39.3388 24.05 40.3223C23.9344 40.5537 23.8188 40.9008 23.8766 41.0165C23.9344 41.1322 24.2234 41.3636 24.4547 41.5372C25.3219 42.1157 25.5531 42.405 25.8422 43.4463C26.0734 44.2562 26.0734 44.2562 26.8828 44.1983C27.8656 44.1983 28.2125 44.2562 28.9641 44.7769H24.8016C24.6281 44.4876 24.5125 44.1405 24.4547 43.8512C24.2812 43.157 24.2234 43.157 23.7031 42.7521C23.2984 42.4628 22.7203 42.1157 22.5469 41.4793C22.3734 40.9008 22.5469 40.2645 22.7203 39.8017C22.9516 39.1074 22.9516 39.1074 22.7203 38.4132C22.1422 36.8512 22.4313 36.0992 23.9344 35.2893C24.05 35.2314 24.1656 35.1157 24.2234 35.0578C24.5703 34.595 24.5125 33.1488 25.7266 32.6859C26.4203 32.3967 27.2875 32.6281 27.6922 32.5124C28.2125 32.3388 29.1375 31.0083 30.4672 31.5868V27.1901C30.4672 26.7851 30.8141 26.438 31.2188 26.438C31.6234 26.438 31.9703 26.7851 31.9703 27.1901V32.6281C32.2594 32.7438 32.8953 32.6281 33.4734 32.6859V3.87603C33.4734 2.54545 32.375 1.50413 31.1031 1.50413H3.87344C2.54375 1.50413 1.50312 2.60331 1.50312 3.87603V46.9752C1.50312 48.3058 2.60156 49.3471 3.87344 49.3471H15.6094C16.0141 49.3471 16.3609 49.6942 16.3609 50.0992C16.3609 50.5041 16.0141 50.8512 15.6094 50.8512H3.87344C1.73437 50.8512 0 49.1157 0 46.9752V3.87603C0 1.73554 1.73437 0 3.87344 0ZM24.8594 50.8512H19.0781C18.6734 50.8512 18.3266 50.5041 18.3266 50.0992C18.3266 49.6942 18.6734 49.3471 19.0781 49.3471H24.8594V50.8512ZM24.8594 47.9008H8.90312C8.09375 47.9008 7.45781 47.2645 7.45781 46.4545C7.45781 44.7769 6.12812 43.4463 4.45156 43.4463C3.64219 43.4463 3.00625 42.8099 3.00625 42V8.90909C3.00625 8.15702 3.58438 7.46281 4.50938 7.46281C6.12813 7.46281 7.51562 6.13223 7.45781 4.45455C7.45781 3.64463 8.09375 3.00826 8.90312 3.00826H25.9C26.6516 3.00826 27.3453 3.58678 27.3453 4.5124C27.3453 6.13223 28.675 7.46281 30.3516 7.46281C31.1609 7.46281 31.7969 8.09917 31.7969 8.90909V23.719C31.7969 24.124 31.45 24.4711 31.0453 24.4711C30.6406 24.4711 30.2938 24.124 30.2938 23.719V8.90909C27.8656 8.90909 25.8422 6.8843 25.8422 4.45455H8.90312C8.90312 6.94215 6.9375 8.90909 4.45156 8.90909V41.8843C5.66562 41.8843 6.76406 42.3471 7.57344 43.2149C8.44063 44.0826 8.90312 45.1818 8.90312 46.3388H24.8594V47.9008Z" fill="#134983"/>
<path fill-rule="evenodd" clip-rule="evenodd" d="M24.5703 44.7769V54.5537C24.5703 55.0744 24.8594 55.595 25.3219 55.8264C25.4953 55.9421 25.7266 56 25.9578 56C26.2469 56 26.5359 55.8843 26.7672 55.7107L28.2703 54.6116L29.6578 53.5702L32.5484 55.7107C32.9531 56 33.5312 56.0578 33.9937 55.8264C34.4562 55.595 34.7453 55.0744 34.7453 54.5537V44.7769L30.4672 44.8347C30.4672 45.0661 30.2359 45.4132 29.6578 45.4132C29.0797 45.4132 28.9063 45.124 28.8484 44.8926L24.5703 44.7769ZM27.1141 53.6281L26.0156 54.438V45.5868C26.3047 45.9917 26.5938 46.5124 27.1141 46.8016V53.6281ZM30.7563 52.5868L30.4672 52.3554C30.4094 52.3554 30.4094 52.2975 30.3516 52.2975C30.1203 52.1818 29.8891 52.124 29.6578 52.124C29.3687 52.124 29.0797 52.2397 28.8484 52.4132L28.5594 52.6446V46.8595C30.0047 46.3967 29.2531 46.3967 30.7563 46.8595V52.5868ZM33.3 54.438L32.2016 53.6281V46.7438C32.7219 46.4545 33.0109 45.9339 33.3 45.5289V54.438Z" fill="#134983"/>
<path fill-rule="evenodd" clip-rule="evenodd" d="M21.5643 12.9587C21.8533 12.9587 22.1424 12.6116 22.1424 12.2067C22.1424 11.8017 21.9111 11.4546 21.5643 11.4546H12.083C11.7939 11.4546 11.5049 11.8017 11.5049 12.2067C11.5049 12.6116 11.7361 12.9587 12.083 12.9587H21.5643Z" fill="#134983"/>
<path fill-rule="evenodd" clip-rule="evenodd" d="M13.2392 32.8595C13.2392 32.4545 13.0079 32.1074 12.661 32.1074H7.92041C7.63135 32.1074 7.34229 32.4545 7.34229 32.8595C7.34229 33.2644 7.57354 33.6116 7.92041 33.6116H12.661C12.9501 33.6116 13.2392 33.2644 13.2392 32.8595Z" fill="#134983"/>
<path fill-rule="evenodd" clip-rule="evenodd" d="M6.76416 15.3307C6.76416 15.7356 6.99541 16.0827 7.34229 16.0827H26.3626C26.6517 16.0827 26.9407 15.7356 26.9407 15.3307C26.9407 14.9257 26.7095 14.5786 26.3626 14.5786H7.34229C6.99541 14.5786 6.76416 14.9257 6.76416 15.3307Z" fill="#134983"/>
<path fill-rule="evenodd" clip-rule="evenodd" d="M7.34229 19.1487H26.3626C26.6517 19.1487 26.9407 18.8016 26.9407 18.3966C26.9407 17.9916 26.7095 17.6445 26.3626 17.6445H7.34229C7.05322 17.6445 6.76416 17.9916 6.76416 18.3966C6.76416 18.8016 6.99541 19.1487 7.34229 19.1487Z" fill="#134983"/>
<path fill-rule="evenodd" clip-rule="evenodd" d="M7.34229 22.2148H26.3626C26.6517 22.2148 26.9407 21.8677 26.9407 21.4628C26.9407 21.0578 26.7095 20.7107 26.3626 20.7107H7.34229C7.05322 20.7107 6.76416 21.0578 6.76416 21.4628C6.76416 21.9256 6.99541 22.2148 7.34229 22.2148Z" fill="#134983"/>
<path fill-rule="evenodd" clip-rule="evenodd" d="M7.34229 25.3388H26.3626C26.6517 25.3388 26.9407 24.9917 26.9407 24.5868C26.9407 24.1818 26.7095 23.8347 26.3626 23.8347H7.34229C7.05322 23.8347 6.76416 24.1818 6.76416 24.5868C6.76416 24.9917 6.99541 25.3388 7.34229 25.3388Z" fill="#134983"/>
<path fill-rule="evenodd" clip-rule="evenodd" d="M7.34229 28.405H26.3626C26.6517 28.405 26.9407 28.0579 26.9407 27.6529C26.9407 27.248 26.7095 26.9009 26.3626 26.9009H7.34229C7.05322 26.9009 6.76416 27.248 6.76416 27.6529C6.76416 28.0579 6.99541 28.405 7.34229 28.405Z" fill="#134983"/>
</svg>
