<svg width="17" height="14" viewBox="0 0 17 14" fill="none" xmlns="http://www.w3.org/2000/svg">
<path d="M8.50004 5.49409C10.0449 5.49409 11.2996 4.26288 11.2996 2.74704C11.2996 1.23121 10.0449 0 8.50004 0C6.9552 0 5.70044 1.23121 5.70044 2.74704C5.70044 4.26288 6.9552 5.49409 8.50004 5.49409ZM8.50004 0.728132C9.63338 0.728132 10.5576 1.63499 10.5576 2.74704C10.5576 3.8591 9.63338 4.76596 8.50004 4.76596C7.36671 4.76596 6.4425 3.8591 6.4425 2.74704C6.4425 1.63499 7.36671 0.728132 8.50004 0.728132Z" fill="#0A2A4F"/>
<path d="M14.4365 5.49405C15.3844 5.49405 16.1568 4.73613 16.1568 3.80611C16.1568 2.87608 15.3844 2.11816 14.4365 2.11816C13.4887 2.11816 12.7163 2.87608 12.7163 3.80611C12.7163 4.73613 13.4887 5.49405 14.4365 5.49405ZM14.4365 2.8463C14.9762 2.8463 15.4147 3.27656 15.4147 3.80611C15.4147 4.33566 14.9762 4.76592 14.4365 4.76592C13.8969 4.76592 13.4584 4.33566 13.4584 3.80611C13.4584 3.27656 13.8969 2.8463 14.4365 2.8463Z" fill="#0A2A4F"/>
<path d="M14.8446 6.3877H14.0621C13.2256 6.3877 12.4565 6.8676 12.1024 7.61228L12.0181 7.791L11.8798 7.64538C11.1343 6.84774 10.0752 6.3877 8.97222 6.3877H8.02778C6.9248 6.3877 5.86567 6.84774 5.11687 7.64869L4.97857 7.79431L4.89425 7.61559C4.54345 6.87091 3.77441 6.39101 2.93452 6.39101H2.15536C0.968056 6.3877 0 7.33096 0 8.48935V12.1035C0 12.5669 0.384524 12.9409 0.856746 12.9409H4.0746L4.08472 13.0633C4.13194 13.5896 4.5873 14 5.12698 14H11.873C12.4127 14 12.8681 13.5896 12.9153 13.0633L12.9254 12.9409H16.1062C16.5986 12.9409 17 12.5503 17 12.0704V8.48935C17 7.33096 16.0319 6.3877 14.8446 6.3877ZM4.35119 8.85342L4.34107 8.87658C4.06448 9.58155 4.06786 10.0416 4.07798 11.2761C4.07798 11.5111 4.08135 11.7792 4.08135 12.0804V12.2128H0.742064V8.48935C0.742064 7.73143 1.37619 7.11583 2.15536 7.11583H2.9379C3.71706 7.11583 4.35119 7.73143 4.35119 8.48935V8.85342ZM12.1766 12.974C12.1766 13.1395 12.0417 13.2719 11.873 13.2719H5.12698C4.95833 13.2719 4.82341 13.1395 4.82341 12.974V10.26C4.82341 8.52576 6.26032 7.11583 8.02778 7.11583H8.97222C10.7397 7.11583 12.1766 8.52576 12.1766 10.26V12.974ZM16.2444 12.1366C16.204 12.2094 16.1635 12.2128 15.9409 12.2128C15.8565 12.2128 15.7351 12.2128 15.5631 12.2128C15.4079 12.2128 15.2089 12.2128 14.956 12.2128C14.5107 12.2128 13.9002 12.2128 13.0569 12.2128H12.922V12.0804C12.922 11.7792 12.9254 11.5078 12.9254 11.2728C12.9321 10.0416 12.9355 9.58155 12.6623 8.87658L12.6522 8.85342V8.48935C12.6522 7.73143 13.2863 7.11583 14.0655 7.11583H14.848C15.6272 7.11583 16.2613 7.73143 16.2613 8.48935V12.0307L16.2849 12.0638L16.2444 12.1366Z" fill="#0A2A4F"/>
<path d="M2.5635 5.49405C3.51132 5.49405 4.28374 4.73613 4.28374 3.80611C4.28374 2.87608 3.51132 2.11816 2.5635 2.11816C1.61568 2.11816 0.843262 2.87608 0.843262 3.80611C0.843262 4.73613 1.61568 5.49405 2.5635 5.49405ZM2.5635 2.8463C3.10318 2.8463 3.54167 3.27656 3.54167 3.80611C3.54167 4.33566 3.10318 4.76592 2.5635 4.76592C2.02382 4.76592 1.58533 4.33566 1.58533 3.80611C1.58533 3.27656 2.02382 2.8463 2.5635 2.8463Z" fill="#0A2A4F"/>
</svg>
