<svg width="47" height="41" viewBox="0 0 47 41" fill="none" xmlns="http://www.w3.org/2000/svg">
<g clip-path="url(#clip0)">
<path d="M13.854 0.850098H32.582V17.9321H13.854V0.850098Z" stroke="#134983" stroke-width="1.7008" stroke-miterlimit="22.9256" stroke-linecap="round" stroke-linejoin="round"/>
<path d="M11.3041 0.850098C6.72107 9.9281 5.68107 11.8721 2.39507 18.0601C1.52907 19.6901 0.851074 20.8751 0.853074 22.7571C0.865074 29.0701 0.862074 27.3361 0.851074 37.9741" stroke="#134983" stroke-width="1.7007" stroke-miterlimit="22.9256" stroke-linecap="round" stroke-linejoin="round"/>
<path d="M0.851074 39.34V33.129" stroke="#134983" stroke-width="1.7008" stroke-miterlimit="22.9256" stroke-linecap="round" stroke-linejoin="round"/>
<path d="M13.855 39.3401V0.851074M32.582 0.851074V39.3411V0.851074Z" stroke="#134983" stroke-width="1.7008" stroke-miterlimit="22.9256" stroke-linecap="round" stroke-linejoin="round"/>
<path d="M11.2529 0.851074H35.1829" stroke="#134983" stroke-width="1.7007" stroke-miterlimit="22.9256" stroke-linecap="round" stroke-linejoin="round"/>
<path d="M35.134 0.850098C39.717 9.9281 40.757 11.8711 44.044 18.0591C44.91 19.6891 45.588 20.8741 45.585 22.7561C45.574 29.0691 45.577 27.3351 45.588 37.9731" stroke="#134983" stroke-width="1.7007" stroke-miterlimit="22.9256" stroke-linecap="round" stroke-linejoin="round"/>
<path d="M45.5859 39.34V33.129" stroke="#134983" stroke-width="1.7008" stroke-miterlimit="22.9256" stroke-linecap="round" stroke-linejoin="round"/>
<path d="M7.35111 23.291H13.8541V35.97H7.35111V23.291ZM0.860107 28.991H7.36311V35.97H0.860107V28.991ZM39.0891 23.291H32.5861V35.97H39.0891V23.291ZM45.5801 28.991H39.0771V35.97H45.5801V28.991Z" stroke="#134983" stroke-width="1.7008" stroke-miterlimit="22.9256" stroke-linecap="round" stroke-linejoin="round"/>
</g>
<defs>
<clipPath id="clip0">
<rect width="46.438" height="40.191" fill="white"/>
</clipPath>
</defs>
</svg>
