<svg width="37" height="58" viewBox="0 0 37 58" fill="none" xmlns="http://www.w3.org/2000/svg">
<path d="M18.4557 6.90625C12.0094 6.90625 6.8877 12.2192 6.8877 18.6833C6.8877 25.1475 12.0977 30.2833 18.4557 30.2833C24.8137 30.2833 30.0237 25.0589 30.0237 18.6833C30.112 12.2192 24.902 6.90625 18.4557 6.90625ZM18.4557 27.7154C13.4223 27.7154 9.44855 23.6421 9.44855 18.6833C9.44855 13.636 13.5106 9.47419 18.4557 9.47419C23.4891 9.47419 27.4629 13.636 27.4629 18.6833C27.5512 23.6421 23.4891 27.7154 18.4557 27.7154Z" fill="#134983"/>
<path d="M26.4916 42.4153L25.8735 42.2382L26.2267 41.7069C33.3795 31.4351 37 23.7313 37 18.5954C37 8.41221 28.6993 0 18.4558 0C8.30072 0 0 8.41221 0 18.684C0 23.7313 3.62052 31.5237 10.7733 41.7954L11.1265 42.3267L10.5084 42.5038C8.0358 42.9466 0 44.8947 0 49.8534C0 55.7863 11.3031 58 18.4558 58C25.6086 58 36.9117 55.7863 36.9117 49.8534C37 44.8947 28.9642 42.9466 26.4916 42.4153ZM2.56086 18.684C2.56086 8.76641 10.8616 2.56794 18.4558 2.56794C27.2864 2.56794 34.3508 9.82901 34.3508 18.684C34.3508 27.4504 20.3986 45.426 18.7208 47.374L18.4558 47.8168L18.1026 47.374C16.5131 45.3374 2.56086 27.3618 2.56086 18.684ZM18.4558 55.5206C11.8329 55.5206 2.56086 53.3954 2.56086 49.942C2.56086 48.171 6.09308 45.7802 12.6277 44.7176H12.8926L13.0692 44.8947C15.4535 48.0824 17.2196 50.2962 17.5728 50.7389C18.1026 51.3588 19.074 51.3588 19.5155 50.7389C19.8687 50.2962 21.6348 48.0824 24.0191 44.8947L24.1957 44.7176H24.4606C30.9069 45.6916 34.4391 48.0824 34.4391 49.8534C34.4391 53.3069 25.1671 55.5206 18.4558 55.5206Z" fill="#134983"/>
</svg>
