<svg width="16" height="16" viewBox="0 0 16 16" fill="none" xmlns="http://www.w3.org/2000/svg">
<g clip-path="url(#clip0)">
<path d="M14.6055 2.0332H11.9368V0.379447C11.9368 0.170751 11.766 0 11.5573 0H0.379447C0.170751 0 0 0.170751 0 0.379447V13.5874C0 14.9186 1.08142 16 2.41265 16H13.5905C14.9217 16 16.0032 14.9186 16.0032 13.5874V3.42767C16 2.65929 15.3739 2.0332 14.6055 2.0332ZM2.41265 15.2411C1.49881 15.2411 0.758893 14.5012 0.758893 13.5874V0.758893H11.1779V13.5874C11.1779 14.1376 11.3581 14.6561 11.6996 15.0862L11.8229 15.2411H2.41265ZM11.9368 2.7921H13.3565L13.3059 2.92174C13.2427 3.083 13.2111 3.25376 13.2111 3.42767V5.08142H11.9368V2.7921ZM13.5874 15.2411C12.8664 15.2411 12.234 14.7794 12.0126 14.0901L11.9715 13.9668H13.5842C13.7929 13.9668 13.9636 13.796 13.9636 13.5874C13.9636 13.3787 13.7929 13.2079 13.5842 13.2079H11.9304V11.9336H13.5842C13.7929 11.9336 13.9636 11.7628 13.9636 11.5542C13.9636 11.3455 13.7929 11.1747 13.5842 11.1747H11.9304V9.9004H13.5842C13.7929 9.9004 13.9636 9.72964 13.9636 9.52095C13.9636 9.31225 13.7929 9.1415 13.5842 9.1415H11.9304V7.86719H13.5842C13.7929 7.86719 13.9636 7.69644 13.9636 7.48775C13.9636 7.27905 13.7929 7.1083 13.5842 7.1083H11.9304V5.83399H13.5842C13.7929 5.83399 13.9636 5.66324 13.9636 5.45455V3.42134C13.9636 3.07036 14.2482 2.78577 14.5992 2.78577C14.9502 2.78577 15.2348 3.07036 15.2348 3.42134V13.581C15.2411 14.5012 14.5012 15.2411 13.5874 15.2411Z" fill="#0A2A4F"/>
<path d="M9.52412 2.0332H2.41265C2.20395 2.0332 2.0332 2.20395 2.0332 2.41265C2.0332 2.62135 2.20395 2.7921 2.41265 2.7921H9.52412C9.73281 2.7921 9.90356 2.62135 9.90356 2.41265C9.90356 2.20395 9.73281 2.0332 9.52412 2.0332Z" fill="#0A2A4F"/>
<path d="M9.52405 9.14478H6.98492C6.77622 9.14478 6.60547 9.31553 6.60547 9.52422C6.60547 9.73292 6.77622 9.90367 6.98492 9.90367H9.52405C9.73274 9.90367 9.90349 9.73292 9.90349 9.52422C9.90349 9.31553 9.73274 9.14478 9.52405 9.14478Z" fill="#0A2A4F"/>
<path d="M4.95178 9.14478H2.41265C2.20395 9.14478 2.0332 9.31553 2.0332 9.52422C2.0332 9.73292 2.20395 9.90367 2.41265 9.90367H4.95178C5.16048 9.90367 5.33123 9.73292 5.33123 9.52422C5.33123 9.31553 5.16048 9.14478 4.95178 9.14478Z" fill="#0A2A4F"/>
<path d="M9.52405 13.208H6.98492C6.77622 13.208 6.60547 13.3788 6.60547 13.5875C6.60547 13.7961 6.77622 13.9669 6.98492 13.9669H9.52405C9.73274 13.9669 9.90349 13.7961 9.90349 13.5875C9.90349 13.3788 9.73274 13.208 9.52405 13.208Z" fill="#0A2A4F"/>
<path d="M4.95178 13.208H2.41265C2.20395 13.208 2.0332 13.3788 2.0332 13.5875C2.0332 13.7961 2.20395 13.9669 2.41265 13.9669H4.95178C5.16048 13.9669 5.33123 13.7961 5.33123 13.5875C5.33123 13.3788 5.16048 13.208 4.95178 13.208Z" fill="#0A2A4F"/>
<path d="M9.52405 11.178H6.98492C6.77622 11.178 6.60547 11.3487 6.60547 11.5574C6.60547 11.7661 6.77622 11.9369 6.98492 11.9369H9.52405C9.73274 11.9369 9.90349 11.7661 9.90349 11.5574C9.90349 11.3487 9.73274 11.178 9.52405 11.178Z" fill="#0A2A4F"/>
<path d="M4.95178 11.178H2.41265C2.20395 11.178 2.0332 11.3487 2.0332 11.5574C2.0332 11.7661 2.20395 11.9369 2.41265 11.9369H4.95178C5.16048 11.9369 5.33123 11.7661 5.33123 11.5574C5.33123 11.3487 5.16048 11.178 4.95178 11.178Z" fill="#0A2A4F"/>
<path d="M9.52412 4.06323H2.41265C2.20395 4.06323 2.0332 4.23398 2.0332 4.44268V7.4909C2.0332 7.6996 2.20395 7.87035 2.41265 7.87035H9.52412C9.73281 7.87035 9.90356 7.6996 9.90356 7.4909V4.44268C9.90356 4.23398 9.73281 4.06323 9.52412 4.06323ZM9.14467 7.11145H2.7921V4.82213H9.14467V7.11145Z" fill="#0A2A4F"/>
</g>
<defs>
<clipPath id="clip0">
<rect width="16" height="16" fill="white"/>
</clipPath>
</defs>
</svg>
