<svg width="52" height="53" viewBox="0 0 52 53" fill="none" xmlns="http://www.w3.org/2000/svg">
<g clip-path="url(#clip0)">
<path d="M1.70321 52.9999C0.764107 52.9999 0 52.2371 0 51.2985C0 50.36 0.764107 49.5972 1.70321 49.5972C2.64232 49.5972 3.40729 50.36 3.40729 51.2985C3.40729 52.2371 2.64319 52.9999 1.70321 52.9999Z" fill="#134983"/>
<path d="M31.4158 50.7791V21.2578L7.65137 50.7791H31.4158Z" stroke="#134983" stroke-width="1.7008" stroke-miterlimit="22.9256" stroke-linejoin="round"/>
<path d="M31.4159 52.9999C30.4768 52.9999 29.7126 52.2371 29.7126 51.2985C29.7126 50.36 30.4768 49.5972 31.4159 49.5972C32.355 49.5972 33.1199 50.36 33.1199 51.2985C33.1199 52.2371 32.355 52.9999 31.4159 52.9999Z" fill="#134983"/>
<path d="M38.9286 0.73584C38.8368 0.752291 38.7787 0.784326 38.7744 0.790387C34.6455 6.02086 14.1367 31.1022 9.46371 36.9396C7.95716 38.8219 5.69169 41.5043 7.94676 43.7069C9.21248 44.9139 9.58847 45.2455 10.9963 46.6239" stroke="#134983" stroke-width="1.7007" stroke-miterlimit="22.9256"/>
<path d="M38.8474 0.73584H51.2637V6.3949H38.8474V0.73584Z" stroke="#134983" stroke-width="1.7008" stroke-miterlimit="22.9256" stroke-linejoin="round"/>
<path d="M25.9814 28.0459L38.8482 11.9034V10.176" stroke="#134983" stroke-width="1.7008" stroke-miterlimit="22.9256"/>
<path d="M37.2386 17.2101H33.2863C32.8991 17.2101 32.5837 16.8326 32.5837 16.3668C32.5837 15.9009 32.8982 15.5234 33.2863 15.5234H37.2386C37.6258 15.5234 37.9412 15.9009 37.9412 16.3668C37.9412 16.8334 37.6258 17.2101 37.2386 17.2101Z" fill="#134983"/>
<path d="M22.6131 35.0348H18.6609C18.2736 35.0348 17.9583 34.6573 17.9583 34.1915C17.9583 33.7256 18.2727 33.3481 18.6609 33.3481H22.6131C23.0003 33.3481 23.3157 33.7256 23.3157 34.1915C23.3157 34.6564 22.9995 35.0348 22.6131 35.0348Z" fill="#134983"/>
<path d="M27.6646 28.9698H23.7124C23.3251 28.9698 23.0098 28.5923 23.0098 28.1265C23.0098 27.6607 23.3242 27.2832 23.7124 27.2832H27.6646C28.0518 27.2832 28.3672 27.6607 28.3672 28.1265C28.3672 28.5923 28.0518 28.9698 27.6646 28.9698Z" fill="#134983"/>
<path d="M17.7816 41.0931H13.8303C13.443 41.0931 13.1277 40.7156 13.1277 40.2498C13.1277 39.784 13.443 39.4065 13.8303 39.4065H17.7816C18.1689 39.4065 18.4851 39.784 18.4851 40.2498C18.4842 40.7156 18.1689 41.0931 17.7816 41.0931Z" fill="#134983"/>
<path d="M38.8481 12.0089V0.73584" stroke="#134983" stroke-width="1.7008" stroke-miterlimit="22.9256"/>
<path d="M1.70312 50.7791H28.1497" stroke="#134983" stroke-width="1.7007" stroke-miterlimit="22.9256"/>
<path d="M38.8474 6.39502H51.2637V12.0541H38.8474V6.39502Z" stroke="#134983" stroke-width="1.7008" stroke-miterlimit="22.9256" stroke-linejoin="round"/>
</g>
<defs>
<clipPath id="clip0">
<rect width="52" height="53" fill="white"/>
</clipPath>
</defs>
</svg>
