<svg width="14" height="14" viewBox="0 0 14 14" fill="none" xmlns="http://www.w3.org/2000/svg">
<path d="M12.3742 1.08387H11.6968V0H10.6129V1.08387H3.3871V0H2.30323V1.08387H1.62581C0.722581 1.08387 0 1.85161 0 2.75484V12.3742C0 13.2774 0.722581 14 1.62581 14H12.329C13.2323 14 13.9548 13.2774 13.9548 12.3742V2.75484C14 1.85161 13.2774 1.08387 12.3742 1.08387ZM12.9161 12.3742C12.9161 12.6903 12.6903 12.9161 12.3742 12.9161H1.62581C1.30968 12.9161 1.08387 12.6903 1.08387 12.3742V5.14839H12.9161V12.3742ZM12.9161 4.06452H1.08387V2.75484C1.08387 2.43871 1.30968 2.2129 1.62581 2.2129H2.30323V3.29677H3.3871V2.16774H10.6129V3.25161H11.6968V2.16774H12.3742C12.6903 2.16774 12.9161 2.39355 12.9161 2.70968V4.06452Z" fill="#134983"/>
<path d="M3.162 6.27734H2.07812V7.36122H3.162V6.27734Z" fill="#134983"/>
<path d="M5.32801 6.27734H4.24414V7.36122H5.32801V6.27734Z" fill="#134983"/>
<path d="M7.54286 6.27734H6.45898V7.36122H7.54286V6.27734Z" fill="#134983"/>
<path d="M9.70887 6.27734H8.625V7.36122H9.70887V6.27734Z" fill="#134983"/>
<path d="M11.9218 6.27734H10.8379V7.36122H11.9218V6.27734Z" fill="#134983"/>
<path d="M3.162 8.49023H2.07812V9.57411H3.162V8.49023Z" fill="#134983"/>
<path d="M5.32801 8.49023H4.24414V9.57411H5.32801V8.49023Z" fill="#134983"/>
<path d="M7.54286 8.49023H6.45898V9.57411H7.54286V8.49023Z" fill="#134983"/>
<path d="M9.70887 8.49023H8.625V9.57411H9.70887V8.49023Z" fill="#134983"/>
<path d="M3.162 10.6582H2.07812V11.7421H3.162V10.6582Z" fill="#134983"/>
<path d="M5.32801 10.6582H4.24414V11.7421H5.32801V10.6582Z" fill="#134983"/>
<path d="M7.54286 10.6582H6.45898V11.7421H7.54286V10.6582Z" fill="#134983"/>
<path d="M9.70887 10.6582H8.625V11.7421H9.70887V10.6582Z" fill="#134983"/>
<path d="M11.9218 8.49023H10.8379V9.57411H11.9218V8.49023Z" fill="#134983"/>
</svg>
