<svg width="42" height="58" viewBox="0 0 42 58" fill="none" xmlns="http://www.w3.org/2000/svg">
<path fill-rule="evenodd" clip-rule="evenodd" d="M4.07826 0H32.5043C34.7565 0 36.5826 1.83738 36.5826 4.10348V38.8912C36.0956 38.6463 35.5478 38.4013 35 38.2175V4.10348C35 2.69483 33.8435 1.5924 32.5043 1.5924H4.07826C2.67826 1.5924 1.58261 2.75607 1.58261 4.10348C1.58261 19.2313 1.58261 34.359 1.58261 49.4256C1.58261 50.8342 2.73913 51.9366 4.07826 51.9366H22.7043C22.9478 52.4879 23.2522 53.0391 23.5565 53.529H4.07826C1.82609 53.529 0 51.6917 0 49.4256C0 34.2978 0 19.17 0 4.10348C0 1.83738 1.82609 0 4.07826 0ZM3.16522 44.1584C3.16522 44.9546 3.77391 45.6895 4.74783 45.6895C6.45217 45.6895 7.91304 47.0982 7.85217 48.8743C7.85217 49.7318 8.52174 50.4055 9.37391 50.4055H22.1565C22.0348 49.9155 21.913 49.3643 21.8522 48.8131H9.37391C9.37391 46.1795 7.30435 44.0972 4.68696 44.0972C4.68696 32.5216 4.68696 21.0074 4.68696 9.43189C7.30435 9.43189 9.37391 7.34953 9.37391 4.71595H27.1478C27.1478 7.28828 29.2783 9.43189 31.8348 9.43189V30.378C31.8348 30.8068 32.2 31.1742 32.6261 31.1742C33.0522 31.1742 33.4174 30.8068 33.4174 30.378V9.43189C33.4174 8.57445 32.7478 7.90074 31.8957 7.90074C30.1304 7.90074 28.7304 6.49208 28.7304 4.77719C28.7304 3.8585 28 3.18479 27.2087 3.18479H9.37391C8.52174 3.18479 7.85217 3.8585 7.85217 4.71595C7.85217 6.49208 6.45217 7.90074 4.74783 7.90074C3.83478 7.90074 3.16522 8.63569 3.16522 9.43189C3.16522 21.0074 3.16522 32.5829 3.16522 44.1584ZM33.4174 37.8501V33.8078C33.4174 33.3791 33.0522 33.0116 32.6261 33.0116C32.2 33.0116 31.8348 33.3791 31.8348 33.8078V37.7276C32.4435 37.7276 32.9304 37.7276 33.4174 37.8501ZM31.8957 37.7276C37.4348 37.7276 42 42.2598 42 47.8332C42 53.4065 37.4957 57.9388 31.9565 57.9388C26.4174 57.9388 21.913 53.4065 21.913 47.8332C21.8522 42.2598 26.3565 37.7276 31.8957 37.7276ZM31.8957 39.3812C36.5217 39.3812 40.2957 43.1785 40.2957 47.8332C40.2957 52.4879 36.5217 56.2851 31.8957 56.2851C27.2696 56.2851 23.4956 52.4879 23.4956 47.8332C23.4956 43.1785 27.2696 39.3812 31.8957 39.3812ZM29.6435 49.2418L28.6087 48.2006C28.3652 47.9557 28 47.7719 27.6348 47.7719C26.9043 47.7719 26.2957 48.3844 26.2957 49.1193C26.2957 49.4868 26.4174 49.8543 26.7217 50.0993L28.7304 52.1204C28.9739 52.3654 29.3391 52.4879 29.6435 52.4879C29.9478 52.4879 30.313 52.3654 30.5565 52.1204C33.6 49.0581 34.1478 48.5069 37.1304 45.5058C37.3739 45.2608 37.4957 44.8934 37.4957 44.5871C37.4957 43.8522 36.887 43.2397 36.1565 43.2397C35.7913 43.2397 35.487 43.3622 35.2435 43.6072L29.6435 49.2418ZM18.9913 37.1151H27.6348C28.0609 37.1151 28.3652 36.8089 28.3652 36.3801C28.3652 35.9514 28.0609 35.6452 27.6348 35.6452H18.9913C18.5652 35.6452 18.2609 35.9514 18.2609 36.3801C18.2609 36.8089 18.5652 37.1151 18.9913 37.1151ZM18.9913 26.3358H27.6348C28.0609 26.3358 28.3652 26.0296 28.3652 25.6008C28.3652 25.1721 28.0609 24.8659 27.6348 24.8659H18.9913C18.5652 24.8659 18.2609 25.1721 18.2609 25.6008C18.2609 25.9683 18.5652 26.3358 18.9913 26.3358ZM18.9913 15.4952H27.6348C28.0609 15.4952 28.3652 15.189 28.3652 14.7603C28.3652 14.3316 28.0609 14.0253 27.6348 14.0253H18.9913C18.5652 14.0253 18.2609 14.3316 18.2609 14.7603C18.2609 15.1278 18.5652 15.4952 18.9913 15.4952ZM9.67826 12.188H14.5478L12.2348 14.5153L11.6261 13.9029C11.5043 13.7804 11.3217 13.6579 11.0783 13.6579C10.6522 13.6579 10.3478 13.9641 10.3478 14.3928C10.3478 14.5766 10.4087 14.7603 10.5913 14.944L11.687 16.0465C11.8087 16.169 11.9913 16.2914 12.1739 16.2914C12.3565 16.2914 12.5391 16.2302 12.7217 16.0465L14.7304 14.0253V17.3326H9.61739V12.188H9.67826ZM8.94783 18.8025H15.5217C15.9478 18.8025 16.2522 18.4963 16.2522 18.0676V12.5554L17.713 11.0855C17.8348 10.963 17.8957 10.7793 17.8957 10.5956C17.8957 10.1668 17.5913 9.86061 17.1652 9.86061C16.9826 9.86061 16.8 9.92186 16.6783 10.0444L15.887 10.8406C15.7652 10.7793 15.6435 10.7181 15.5217 10.7181H8.94783C8.52174 10.7181 8.21739 11.0243 8.21739 11.453V18.0676C8.21739 18.4351 8.52174 18.8025 8.94783 18.8025ZM9.67826 33.8078H14.5478L12.2348 36.1352L11.6261 35.5227C11.5043 35.4002 11.3217 35.339 11.1391 35.339C10.713 35.339 10.4087 35.6452 10.4087 36.0739C10.4087 36.2577 10.4696 36.4414 10.5913 36.5639L11.687 37.6663C11.8087 37.7888 11.9913 37.9113 12.1739 37.9113C12.3565 37.9113 12.5391 37.8501 12.7217 37.6663L14.7304 35.6452V38.9525H9.61739V33.8078H9.67826ZM8.94783 40.4224H15.5217C15.9478 40.4224 16.2522 40.1162 16.2522 39.6874V34.1753L17.713 32.7054C17.8348 32.5829 17.9565 32.3992 17.9565 32.1542C17.9565 31.7255 17.6522 31.4192 17.2261 31.4192C17.0435 31.4192 16.8609 31.4805 16.6783 31.6642L15.887 32.4604C15.7652 32.3992 15.6435 32.3379 15.5217 32.3379H8.94783C8.52174 32.3379 8.21739 32.6441 8.21739 33.0729V39.6874C8.21739 40.1162 8.52174 40.4224 8.94783 40.4224ZM9.67826 23.0285H14.5478L12.2348 25.3559L11.6261 24.7434C11.5043 24.6209 11.3217 24.5597 11.1391 24.5597C10.713 24.5597 10.4087 24.8659 10.4087 25.2946C10.4087 25.4784 10.4696 25.6621 10.5913 25.7846L11.687 26.887C11.8087 27.0095 11.9913 27.132 12.1739 27.132C12.3565 27.132 12.5391 27.0708 12.7217 26.887L14.7304 24.8659V28.1732H9.61739V23.0285H9.67826ZM8.94783 29.6431H15.5217C15.9478 29.6431 16.2522 29.3369 16.2522 28.9081V23.396L17.713 21.9261C17.8348 21.8036 17.8957 21.6199 17.8957 21.4361C17.8957 21.0074 17.5913 20.7012 17.1652 20.7012C16.9826 20.7012 16.8 20.7624 16.6783 20.8849L15.887 21.6811C15.7652 21.6199 15.6435 21.5586 15.5217 21.5586H8.94783C8.52174 21.5586 8.21739 21.8648 8.21739 22.2936V28.9081C8.21739 29.2756 8.52174 29.6431 8.94783 29.6431Z" fill="#134983"/>
</svg>
