<svg width="32" height="51" viewBox="0 0 32 51" fill="none" xmlns="http://www.w3.org/2000/svg">
<g clip-path="url(#clip0)">
<path d="M30.835 49.6369V3.49194" stroke="#134983" stroke-width="1.7007" stroke-miterlimit="22.9256" stroke-linecap="round" stroke-linejoin="round"/>
<path d="M25.583 1.7519C26.55 0.351902 30.851 0.316902 30.834 3.5649" stroke="#134983" stroke-width="1.7009" stroke-miterlimit="22.9256" stroke-linecap="round" stroke-linejoin="round"/>
<path d="M20.8401 28.6321H30.8351V46.2851H20.8401V28.6321ZM10.8451 34.2441H20.8401V46.2861H10.8451V34.2441ZM0.850098 39.8131H10.8451V46.2851H0.850098V39.8131Z" stroke="#134983" stroke-width="1.7008" stroke-miterlimit="22.9256" stroke-linejoin="round"/>
<path d="M25.9151 1.41211C25.8691 1.48411 25.6751 1.62611 25.6231 1.70711C23.3981 5.18011 15.8561 17.0781 13.3011 20.9911C11.7791 23.3221 9.33106 26.5581 12.1071 28.9111C13.9981 30.5951 14.5791 31.1121 17.7491 33.9391C17.8371 34.0171 17.9281 34.0981 18.0201 34.1801" stroke="#134983" stroke-width="1.7007" stroke-miterlimit="22.9256" stroke-linejoin="round"/>
<path d="M0.850098 49.6369V41.6289" stroke="#134983" stroke-width="1.7008" stroke-miterlimit="22.9256" stroke-linecap="round" stroke-linejoin="round"/>
</g>
<defs>
<clipPath id="clip0">
<rect width="31.685" height="50.487" fill="white"/>
</clipPath>
</defs>
</svg>
