<svg width="36" height="40" viewBox="0 0 36 40" fill="none" xmlns="http://www.w3.org/2000/svg">
<g clip-path="url(#clip0)">
<path d="M35.2969 0.847656H6.89062C6.50236 0.847656 6.1875 1.18379 6.1875 1.59845V4.90195H3.79688C3.40861 4.90195 3.09375 5.23815 3.09375 5.65274V9.70703H0.703125C0.314789 9.70703 0 10.0432 0 10.4578V35.234C0 37.4695 1.70332 39.2883 3.79688 39.2883H32.2031C34.2967 39.2883 36 37.4695 36 35.234V1.59845C36 1.18379 35.6851 0.847656 35.2969 0.847656ZM6.1875 35.234C6.1875 36.6416 5.11509 37.7867 3.79688 37.7867C2.47866 37.7867 1.40625 36.6416 1.40625 35.234V11.2086H3.09375V34.4832C3.09375 34.8978 3.40861 35.234 3.79688 35.234C4.18514 35.234 4.5 34.8978 4.5 34.4832V6.40354H6.1875V25.0985V26.3747V35.234ZM34.5938 35.234C34.5938 36.6416 33.5213 37.7867 32.2031 37.7867H6.74381C7.27467 37.0893 7.59375 36.2008 7.59375 35.234V26.3747V25.0985V21.9508C7.61646 21.8765 7.62891 21.7985 7.62891 21.7197C7.62891 21.641 7.61646 21.563 7.59375 21.4886V2.34925H34.5938V35.234Z" fill="white"/>
<path d="M10.2656 12.71H31.9219C32.3101 12.71 32.625 12.3739 32.625 11.9592V6.55353C32.625 6.13894 32.3101 5.80273 31.9219 5.80273H10.2656C9.87729 5.80273 9.5625 6.13894 9.5625 6.55353V11.9592C9.5625 12.3739 9.87729 12.71 10.2656 12.71ZM10.9688 7.30432H31.2188V11.2085H10.9688V7.30432Z" fill="white"/>
<path d="M10.2656 30.7293H21.0938C21.482 30.7293 21.7969 30.3931 21.7969 29.9785V15.5633C21.7969 15.1486 21.482 14.8125 21.0938 14.8125H10.2656C9.87729 14.8125 9.5625 15.1486 9.5625 15.5633V29.9785C9.5625 30.3931 9.87729 30.7293 10.2656 30.7293ZM10.9688 16.3141H20.3906V29.2278H10.9688V16.3141Z" fill="white"/>
<path d="M31.9219 14.8125H24.4688C24.0805 14.8125 23.7656 15.1486 23.7656 15.5633C23.7656 15.978 24.0805 16.3141 24.4688 16.3141H31.9219C32.3101 16.3141 32.625 15.978 32.625 15.5633C32.625 15.1486 32.3101 14.8125 31.9219 14.8125Z" fill="white"/>
<path d="M31.9219 18.416H24.4688C24.0805 18.416 23.7656 18.7521 23.7656 19.1668C23.7656 19.5815 24.0805 19.9176 24.4688 19.9176H31.9219C32.3101 19.9176 32.625 19.5815 32.625 19.1668C32.625 18.7521 32.3101 18.416 31.9219 18.416Z" fill="white"/>
<path d="M31.9219 22.02H24.4688C24.0805 22.02 23.7656 22.3562 23.7656 22.7708C23.7656 23.1854 24.0805 23.5216 24.4688 23.5216H31.9219C32.3101 23.5216 32.625 23.1854 32.625 22.7708C32.625 22.3562 32.3101 22.02 31.9219 22.02Z" fill="white"/>
<path d="M31.9219 25.624H24.4688C24.0805 25.624 23.7656 25.9602 23.7656 26.3748C23.7656 26.7894 24.0805 27.1256 24.4688 27.1256H31.9219C32.3101 27.1256 32.625 26.7894 32.625 26.3748C32.625 25.9602 32.3101 25.624 31.9219 25.624Z" fill="white"/>
<path d="M31.9219 29.2275H24.4688C24.0805 29.2275 23.7656 29.5637 23.7656 29.9783C23.7656 30.3929 24.0805 30.7291 24.4688 30.7291H31.9219C32.3101 30.7291 32.625 30.3929 32.625 29.9783C32.625 29.5637 32.3101 29.2275 31.9219 29.2275Z" fill="white"/>
<path d="M10.2656 34.3331H31.9219C32.3101 34.3331 32.625 33.9969 32.625 33.5823C32.625 33.1677 32.3101 32.8315 31.9219 32.8315H10.2656C9.87729 32.8315 9.5625 33.1677 9.5625 33.5823C9.5625 33.9969 9.87729 34.3331 10.2656 34.3331Z" fill="white"/>
</g>
<defs>
<clipPath id="clip0">
<rect width="36" height="38.4407" fill="white" transform="translate(0 0.847656)"/>
</clipPath>
</defs>
</svg>
