<svg width="35" height="35" viewBox="0 0 35 35" fill="none" xmlns="http://www.w3.org/2000/svg">
<path d="M5.66568 16.1073C5.49797 15.9395 5.25005 15.8885 5.0313 15.9833C4.81255 16.0708 4.67401 16.2896 4.67401 16.5229V29.75C4.67401 30.0708 4.93651 30.3333 5.25734 30.3333H18.4917C18.7251 30.3333 18.9438 30.1948 19.0313 29.976C19.1188 29.7573 19.0751 29.5093 18.9073 29.3416L5.66568 16.1073ZM5.83339 17.9229L9.33339 21.4229V29.1666H5.83339V17.9229ZM10.5001 29.1666V22.5896L17.0771 29.1666H10.5001Z" fill="#134983"/>
<path d="M30.749 0.167708C30.6396 0.0583333 30.4865 0 30.3333 0H9.91667C9.59583 0 9.33333 0.2625 9.33333 0.583333V13.176L0.998958 4.83437C0.83125 4.66667 0.583333 4.61562 0.364583 4.71042C0.138542 4.79792 0 5.01667 0 5.25V34.4167C0 34.7375 0.2625 35 0.583333 35H29.75C29.9833 35 30.2021 34.8615 30.2896 34.6427C30.3771 34.424 30.3333 34.176 30.1656 34.0083L26.4906 30.3333H28.5833H34.4167C34.7375 30.3333 35 30.0708 35 29.75V9.33333V4.66667C35 4.51354 34.9417 4.36042 34.8323 4.25104L30.749 0.167708ZM1.16667 33.8333V6.65729L3.84271 9.33333L3.09167 10.0844L3.91562 10.9083L4.66667 10.1573L5.59271 11.0833L4.84167 11.8344L5.66562 12.6583L6.41667 11.9073L7.34271 12.8333L6.59167 13.5844L7.41562 14.4083L8.16667 13.6573L9.09271 14.5833L8.34167 15.3344L9.16562 16.1583L9.91667 15.4073L10.8427 16.3333L10.0917 17.0844L10.9156 17.9083L11.6667 17.1573L12.5927 18.0833L11.8417 18.8344L12.6656 19.6583L13.4167 18.9073L14.3427 19.8333L13.5917 20.5844L14.4156 21.4083L15.1667 20.6573L16.0927 21.5833L15.3417 22.3344L16.1656 23.1583L16.9167 22.4073L17.8427 23.3333L17.0917 24.0844L17.9156 24.9083L18.6667 24.1573L19.5927 25.0833L18.8417 25.8344L19.6656 26.6583L20.4167 25.9073L21.3427 26.8333L20.5917 27.5844L21.4156 28.4083L22.1667 27.6573L23.0927 28.5833L22.3417 29.3344L23.1656 30.1583L23.9167 29.4073L24.8427 30.3333L24.0917 31.0844L24.9156 31.9083L25.6667 31.1573L28.3427 33.8333H1.16667ZM13.4167 7.58333H15.75V19.5927L13.4167 17.2594V7.58333ZM13.774 6.41667L14.5833 4.80521L15.3927 6.41667H13.774ZM21.0073 18.149L21.999 15.1667H23.4937L24.4854 18.149L23.5594 27.4021L21.751 25.5938L21.0073 18.149ZM23.3333 11.6667V9.03438L24.9812 11.674L23.5885 14H21.9187L20.526 11.674L22.174 9.03438V11.6667H23.3333ZM24.6312 28.474L25.6667 18.1417C25.674 18.0615 25.6667 17.974 25.6375 17.901L24.5583 14.6562L26.1698 11.9729C26.2792 11.7833 26.2792 11.55 26.1625 11.3604L23.2458 6.69375C23.0344 6.35104 22.4729 6.35104 22.2542 6.69375L19.3375 11.3604C19.2208 11.55 19.2208 11.7833 19.3302 11.9729L20.9417 14.6562L19.8625 17.901C19.8333 17.9812 19.826 18.0615 19.8333 18.1417L20.4458 24.2885L16.9167 20.7594V7C16.9167 6.9125 16.8948 6.81771 16.8583 6.7375L15.1083 3.2375C14.9115 2.84375 14.2625 2.84375 14.0656 3.2375L12.3156 6.7375C12.2719 6.81771 12.2573 6.90521 12.2573 7V16.0927L10.5073 14.3427V1.16667H30.1L33.0167 4.08333H30.9167V2.91667H29.75V4.66667C29.75 4.9875 30.0125 5.25 30.3333 5.25H33.8333V8.75H28.5833C28.2625 8.75 28 9.0125 28 9.33333V29.1667H25.324L24.6312 28.474ZM29.1667 29.1667V9.91667H33.8333V11.6667H32.6667V12.8333H33.8333V14.5833H32.6667V15.75H33.8333V17.5H32.6667V18.6667H33.8333V20.4167H32.6667V21.5833H33.8333V23.3333H32.6667V24.5H33.8333V26.25H32.6667V27.4167H33.8333V29.1667H29.1667Z" fill="#134983"/>
<path d="M2.33374 31.5H3.50041V32.6667H2.33374V31.5Z" fill="#134983"/>
<path d="M4.66663 31.5H5.83329V32.6667H4.66663V31.5Z" fill="#134983"/>
<path d="M6.99985 31.5H8.16651V32.6667H6.99985V31.5Z" fill="#134983"/>
</svg>
