<svg width="32" height="40" viewBox="0 0 32 40" fill="none" xmlns="http://www.w3.org/2000/svg">
<g clip-path="url(#clip0)">
<path d="M27.9258 5.24021H24.2413V3.61797C24.2413 3.09849 23.6566 2.85242 23.1276 2.85242H20.2691C19.5916 0.956776 17.8933 -0.000161241 15.9536 -0.000161241C14.0325 -0.0730708 12.2877 1.08437 11.6381 2.85242H8.82599C8.29698 2.85242 7.7587 3.08938 7.7587 3.61797V5.24021H4.07425C1.89327 5.26755 0.102088 6.95359 0 9.0953V36.3817C0 38.4778 1.93968 39.9998 4.07425 39.9998H27.9258C30.0603 39.9998 32 38.4778 32 36.3817V9.0953C31.8979 6.95359 30.116 5.26755 27.9258 5.24021ZM9.69838 4.7663H12.3619C12.826 4.71162 13.1972 4.3653 13.2807 3.90961C13.5684 2.67926 14.6636 1.80435 15.9443 1.76789C17.2158 1.80435 18.2923 2.68838 18.5615 3.90961C18.645 4.37441 19.0441 4.72985 19.5267 4.7663H22.2923V8.57582H9.69838V4.7663ZM30.0603 36.3817C30.0603 37.4298 28.993 38.0951 27.9258 38.0951H4.07425C3.00696 38.0951 1.93968 37.4298 1.93968 36.3817V9.0953C2.04176 8.00166 2.96056 7.1632 4.07425 7.14497H7.7587V9.56921C7.81439 10.1069 8.27842 10.4988 8.82599 10.4715H23.1276C23.6845 10.4988 24.1671 10.1069 24.2413 9.56921V7.14497H27.9258C29.0394 7.1632 29.9582 8.01077 30.0603 9.0953V36.3817Z" fill="#134983"/>
<path d="M12.2691 21.2896C11.9071 20.9159 11.3039 20.8886 10.9141 21.244L7.81431 24.1513L6.49645 22.8115C6.1345 22.4379 5.53125 22.4105 5.14146 22.766C4.77023 23.1487 4.77023 23.7594 5.14146 24.1513L7.12754 26.1472C7.30387 26.3385 7.54517 26.4388 7.80503 26.4297C8.06489 26.4297 8.30619 26.3203 8.48253 26.1472L12.2691 22.6202C12.6403 22.2829 12.6681 21.7088 12.3248 21.3442C12.3062 21.326 12.2876 21.3078 12.2691 21.2896Z" fill="#134983"/>
<path d="M26.1808 23.3311H15.0347C14.4964 23.3311 14.0695 23.7594 14.0695 24.2789C14.0695 24.7984 14.5057 25.2267 15.0347 25.2267H26.1901C26.7284 25.2267 27.1553 24.7984 27.1553 24.2789C27.1553 23.7594 26.7191 23.3311 26.1808 23.3311Z" fill="#134983"/>
<path d="M12.2691 13.6704C11.9071 13.2968 11.3039 13.2694 10.9141 13.6248L7.81431 16.5321L6.49645 15.1924C6.1345 14.8187 5.53125 14.7914 5.14146 15.1468C4.77023 15.5296 4.77023 16.1402 5.14146 16.5321L7.12754 18.528C7.30387 18.7194 7.54517 18.8197 7.80503 18.8105C8.06489 18.8105 8.30619 18.7012 8.48253 18.528L12.2691 15.001C12.6403 14.6638 12.6681 14.0896 12.3248 13.7251C12.3062 13.7069 12.2876 13.6886 12.2691 13.6704Z" fill="#134983"/>
<path d="M26.1808 15.7119H15.0347C14.4964 15.7119 14.0695 16.1403 14.0695 16.6597C14.0695 17.1792 14.5057 17.6076 15.0347 17.6076H26.1901C26.7284 17.6076 27.1553 17.1792 27.1553 16.6597C27.1553 16.1403 26.7191 15.7119 26.1808 15.7119Z" fill="#134983"/>
<path d="M12.2691 28.9087C11.9071 28.535 11.3039 28.5077 10.9141 28.8631L7.81431 31.7704L6.49645 30.4307C6.1345 30.057 5.53125 30.0297 5.14146 30.3851C4.77023 30.7679 4.77023 31.3785 5.14146 31.7704L7.12754 33.7663C7.30387 33.9577 7.54517 34.0579 7.80503 34.0488C8.06489 34.0488 8.30619 33.9395 8.48253 33.7663L12.2691 30.2393C12.6403 29.9021 12.6681 29.3279 12.3248 28.9634C12.3062 28.9451 12.2876 28.9269 12.2691 28.9087Z" fill="#134983"/>
<path d="M26.1808 30.9502H15.0347C14.4964 30.9502 14.0695 31.3785 14.0695 31.898C14.0695 32.4175 14.5057 32.8458 15.0347 32.8458H26.1901C26.7284 32.8458 27.1553 32.4175 27.1553 31.898C27.1553 31.3785 26.7191 30.9502 26.1808 30.9502Z" fill="#134983"/>
</g>
<defs>
<clipPath id="clip0">
<rect width="32" height="40" fill="white"/>
</clipPath>
</defs>
</svg>
