<svg width="54" height="54" viewBox="0 0 54 54" fill="none" xmlns="http://www.w3.org/2000/svg">
<g clip-path="url(#clip0)">
<path d="M17.2451 25.6392C17.256 25.6174 17.2669 25.5956 17.2778 25.5847C17.2669 25.5956 17.256 25.6174 17.2451 25.6392Z" fill="#134983"/>
<path d="M16.5483 27.9691C16.581 27.3812 16.7334 26.4775 17.2233 25.6719C16.7987 26.336 16.5483 27.1199 16.5483 27.9691Z" fill="#134983"/>
<path d="M54 22.6452H52.0403L49.1226 24.1802C48.796 23.9952 48.4476 23.8427 48.0883 23.7556L44.4194 22.8411V22.4274C46.0415 21.2952 47.0323 19.4226 47.0323 17.4302V15.9061C47.0323 12.5202 44.3758 9.68952 41.1206 9.59153C40.9573 9.59153 40.794 9.59153 40.6306 9.60242L41.5778 7.37057L36.9617 2.75444L34.2399 4.52903C33.2056 3.95202 32.1169 3.49476 30.9847 3.17903L30.3206 0H23.6794L23.0044 3.16815C21.8722 3.48387 20.7726 3.94113 19.7492 4.51815L17.0274 2.74355L12.4222 7.34879L13.3585 9.58065C13.3258 9.58065 13.2931 9.56976 13.2496 9.56976C11.5839 9.5371 10.0161 10.1468 8.81855 11.3008C7.62097 12.4548 6.96774 14.0117 6.96774 15.6774V17.4194C6.96774 19.4117 7.95847 21.2843 9.58065 22.4165V22.8302L7.18548 23.429L2.85242 20.9032H0V38.954L8.56814 41.8065H10.2339L10.4407 41.077L13.0645 42.6557C13.1081 44.0819 14.2512 45.2359 15.6774 45.2794C15.7319 46.7057 16.8641 47.8379 18.2903 47.8923C18.3448 49.3186 19.477 50.4508 20.9032 50.5053C20.9577 51.9641 22.1444 53.129 23.6141 53.129C24.1585 53.129 24.6919 52.9548 25.1383 52.6609L25.9113 53.3468C26.3903 53.7714 27.0218 54.0109 27.6641 54.0109H27.8274C29.2754 54.0109 30.4512 52.8351 30.473 51.398C31.9101 51.3762 33.0641 50.2222 33.0859 48.7851C34.523 48.7633 35.677 47.6093 35.6988 46.1722C37.1468 46.1395 38.3117 44.9528 38.3117 43.5048C38.3117 43.4178 38.3117 43.3307 38.3008 43.2436L54 35.3722V22.6452ZM17.2669 4.98629L19.7165 6.57581L20.1847 6.29274C21.3605 5.57419 22.6234 5.05161 23.9516 4.725L24.4851 4.59436L25.0948 1.74194H28.9052L29.5149 4.59436L30.0484 4.725C31.3766 5.04073 32.6504 5.57419 33.8153 6.29274L34.2835 6.57581L36.7331 4.98629L39.5202 7.7625L38.5294 10.0706C37.8544 10.3645 37.2339 10.7673 36.6895 11.2899C36.6569 11.3226 36.6242 11.3661 36.5915 11.3988C34.5339 8.14355 30.9085 6.09678 27 6.09678C23.0589 6.09678 19.4226 8.16533 17.3758 11.4641C16.8315 10.8871 16.1782 10.4298 15.4597 10.1032L14.4798 7.77339L17.2669 4.98629ZM11.3226 24.1911V21.4367L10.8871 21.1863C9.54798 20.4133 8.70968 18.9653 8.70968 17.4194V15.6774C8.70968 14.4907 9.17782 13.3802 10.0379 12.5528C10.8871 11.7254 12.0194 11.279 13.206 11.3226C15.5359 11.3879 17.4302 13.4456 17.4302 15.8952V17.4194C17.4302 18.9653 16.5919 20.4133 15.2528 21.1863L14.8173 21.4367V24.1911L17.8004 24.9423C19.2593 23.5161 20.0323 23.7012 20.0323 23.7012L16.5484 22.8302V22.4165C18.1706 21.2843 19.1613 19.4117 19.1613 17.4194V15.8952C19.1613 14.8718 18.9109 13.8919 18.4863 13.0319C20.1194 9.86371 23.4181 7.83871 27 7.83871C30.5492 7.83871 33.8262 9.84194 35.481 12.9665C35.0673 13.794 34.8387 14.7194 34.8387 15.6774V17.4194C34.8387 19.4117 35.8294 21.2843 37.4516 22.4165V22.8302L33.9677 23.7012L36.1996 24.9423L39.1936 24.1911V21.4367L38.7581 21.1863C37.419 20.4133 36.5806 18.9653 36.5806 17.4194V15.6774C36.5806 14.4907 37.0488 13.3802 37.9089 12.5528C38.7581 11.7254 39.8903 11.279 41.077 11.3226C43.4069 11.3879 45.3012 13.4456 45.3012 15.8952V17.4194C45.3012 18.9653 44.4629 20.4133 43.1238 21.1863L42.6883 21.4367V24.1911L47.0431 25.2798L37.4625 30.3206L35.7206 31.2351L35.5028 31.344H34.9694L29.6129 29.8089C29.1883 29.6891 28.7528 29.6456 28.3173 29.6238L24.3762 28.3609C22.5798 27.7839 20.631 27.6968 18.7911 28.1105L18.2903 28.2194L16.5484 28.6113L13.8266 29.2101L13.8919 28.9597L13.9246 27.3484L9.33024 24.6702L11.3226 24.1911ZM1.74194 37.6911V22.6452H2.37339L8.63347 26.3032L5.47621 38.9432L1.74194 37.6911ZM8.92742 40.0645H8.85121L7.14194 39.4984L10.2121 27.2177L12.1935 28.3718V28.6222L8.92742 40.0645ZM16.4722 43.2653C16.2871 43.4504 16.0367 43.5484 15.7863 43.5484C15.2528 43.5484 14.8065 43.1129 14.8065 42.5686C14.8065 42.3073 14.9153 42.0569 15.0895 41.8827L16.6246 40.3476C16.8097 40.1625 17.0601 40.0645 17.3105 40.0645C17.844 40.0645 18.2903 40.5 18.2903 41.0444C18.2903 41.3057 18.1815 41.5561 18.0073 41.7302L16.4722 43.2653ZM19.0851 45.8782C18.9 46.0633 18.6496 46.1613 18.3992 46.1613C17.8657 46.1613 17.4194 45.7258 17.4194 45.1815C17.4194 44.9202 17.5282 44.6698 17.7024 44.4956L19.2375 42.9605C19.4226 42.7754 19.673 42.6774 19.9234 42.6774C20.4569 42.6774 20.9032 43.1129 20.9032 43.6573C20.9032 43.9186 20.7944 44.169 20.6202 44.3432L19.0851 45.8782ZM21.698 48.4911C21.5129 48.6762 21.2625 48.7742 21.0121 48.7742C20.4786 48.7742 20.0323 48.3387 20.0323 47.7944C20.0323 47.5331 20.1411 47.2827 20.3153 47.1085L21.8504 45.5734C22.0355 45.3883 22.2859 45.2903 22.5363 45.2903C23.0698 45.2903 23.5161 45.7258 23.5161 46.2702C23.5161 46.5315 23.4073 46.7819 23.2331 46.9561L21.698 48.4911ZM25.846 49.569L24.3109 51.104C24.1258 51.2891 23.8754 51.3871 23.625 51.3871C23.0915 51.3871 22.6452 50.9516 22.6452 50.4073C22.6452 50.146 22.754 49.8956 22.9282 49.7214L24.4633 48.1863C24.6484 48.0012 24.8988 47.9032 25.1492 47.9032C25.6827 47.9032 26.129 48.3387 26.129 48.8831C26.129 49.1335 26.0202 49.3839 25.846 49.569ZM27.8383 52.2581H27.675C27.4573 52.2581 27.2395 52.1819 27.0762 52.0294L26.423 51.4524L27.0762 50.7992C27.3048 50.5706 27.4899 50.2875 27.6206 49.9936L28.4153 50.6577C28.6222 50.8319 28.7419 51.0823 28.7419 51.3544C28.7419 51.8553 28.3391 52.2581 27.8383 52.2581ZM35.6444 44.4194H35.4919C35.2742 44.4194 35.0564 44.3432 34.8931 44.2016L30.1681 40.2605L29.0468 41.5996L33.6302 45.421C33.8371 45.5952 33.9569 45.8456 33.9569 46.1178C33.9569 46.6186 33.554 47.0214 33.0532 47.0214H32.8681C32.6613 47.0214 32.4544 46.9452 32.2911 46.8145L27.5552 42.8734L26.4339 44.2125L31.0173 48.0339C31.2242 48.2081 31.344 48.4585 31.344 48.7307C31.344 49.2315 30.9411 49.6343 30.4403 49.6343C30.1028 49.6343 29.7762 49.5145 29.5258 49.3077L27.577 47.6855C27.1524 46.8145 26.2706 46.2048 25.2363 46.1613C25.1819 44.7351 24.0496 43.6028 22.6234 43.5484C22.569 42.1222 21.4367 40.9899 20.0105 40.9355C19.956 39.4766 18.7694 38.3117 17.2996 38.3117C16.581 38.3117 15.8843 38.6057 15.3726 39.1065L13.8375 40.6415C13.7504 40.7286 13.6742 40.8375 13.598 40.9355L10.9198 39.3351L13.2823 31.1371L19.1613 29.8307C20.7073 29.4823 22.3294 29.5585 23.8319 30.0375L25.1165 30.4512L20.7617 32.6286C19.771 33.1294 19.1504 34.1311 19.1504 35.2415V35.4157C19.1504 37.027 20.4569 38.3335 22.0681 38.3335C22.6016 38.3335 23.1133 38.1919 23.5706 37.9198L26.8149 35.971C27.4681 35.579 28.3391 35.6661 28.9052 36.1669L36.2649 42.7863C36.4609 42.9605 36.5698 43.2218 36.5698 43.4831C36.5806 43.9948 36.156 44.4194 35.6444 44.4194ZM52.2581 34.3052L37.5823 41.6432C37.5387 41.5887 37.4843 41.5452 37.4298 41.5016L30.0702 34.8823C29.4278 34.3052 28.5895 33.9786 27.7185 33.9786C27.0871 33.9786 26.4556 34.1528 25.9113 34.4794L22.6669 36.4282C22.4819 36.5371 22.275 36.5915 22.0681 36.5915C21.4149 36.5915 20.8923 36.069 20.8923 35.4157V35.2415C20.8923 34.7952 21.1427 34.3923 21.5456 34.1855L26.4012 31.7577C27.2286 31.344 28.2194 31.246 29.1121 31.5073L34.5883 33.075L35.9274 33.0968L52.2581 24.496V34.3052Z" fill="#134983"/>
<path d="M17.2231 25.6718C17.234 25.6609 17.234 25.65 17.2449 25.6392C17.234 25.65 17.234 25.6609 17.2231 25.6718Z" fill="#134983"/>
<path d="M16.5483 27.969C16.5265 28.3718 16.5483 28.6331 16.5483 28.6331V27.9799C16.5483 27.969 16.5483 27.969 16.5483 27.969Z" fill="#134983"/>
<path d="M17.8003 24.9424C17.5934 25.1384 17.4301 25.3561 17.2886 25.5738C17.4301 25.3561 17.6043 25.1384 17.8003 24.9424Z" fill="#134983"/>
<path d="M17.2451 25.6391C17.2342 25.65 17.2342 25.6609 17.2233 25.6718C16.7334 26.4775 16.581 27.3811 16.5483 27.969V27.9799V28.6222L18.2903 28.2303V27.9799C18.2903 26.7823 19.1068 25.7371 20.2717 25.4432L25.258 24.2021V21.4476L24.8225 21.1972C23.4834 20.4242 22.6451 18.9762 22.6451 17.4303V15.6883C22.6451 14.5017 23.1133 13.3912 23.9733 12.5637C24.8225 11.7363 25.9657 11.29 27.1415 11.3335C29.4713 11.3988 31.3657 13.4565 31.3657 15.9061V17.4303C31.3657 18.9762 30.5274 20.4242 29.1883 21.1972L28.7528 21.4476V24.2021L33.7391 25.4432C34.8931 25.7371 35.7096 26.7823 35.7096 27.9799V31.246L37.4516 30.3315V27.9799C37.4516 26.8041 36.9834 25.7371 36.1996 24.9424L33.9677 23.7121L30.4838 22.8412V22.4275C32.106 21.2952 33.0967 19.4226 33.0967 17.4303V15.9061C33.0967 12.5202 30.4403 9.68956 27.185 9.59157C25.5193 9.54802 23.9407 10.1468 22.754 11.3117C21.5564 12.4658 20.9032 14.0226 20.9032 15.6883V17.4303C20.9032 19.4226 21.8939 21.2952 23.5161 22.4275V22.8412L20.0322 23.7121C20.0322 23.7121 19.2592 23.5162 17.8004 24.9533C17.6044 25.1492 17.4411 25.367 17.2887 25.5847C17.2669 25.5956 17.256 25.6174 17.2451 25.6391Z" fill="#134983"/>
</g>
<defs>
<clipPath id="clip0">
<rect width="54" height="54" fill="white"/>
</clipPath>
</defs>
</svg>
