<svg width="39" height="59" viewBox="0 0 39 59" fill="none" xmlns="http://www.w3.org/2000/svg">
<g clip-path="url(#clip0)">
<path fill-rule="evenodd" clip-rule="evenodd" d="M35.9533 41.3244C35.9533 43.9453 33.8205 46.0176 31.2612 46.0176C28.6408 46.0176 26.569 43.8844 26.569 41.3244C26.569 38.7645 28.6408 36.5703 31.2002 36.5703C33.8205 36.5703 35.9533 38.7036 35.9533 41.3244ZM28.0924 41.3244C28.0924 43.0311 29.494 44.4939 31.2612 44.4939C32.9674 44.4939 34.4299 43.092 34.4299 41.3244C34.4299 39.6178 33.0283 38.155 31.2612 38.155C29.494 38.155 28.0924 39.5569 28.0924 41.3244Z" fill="#134983"/>
<path fill-rule="evenodd" clip-rule="evenodd" d="M4.08281 0H32.5406C34.7953 0 36.6234 1.82851 36.6234 4.08368C36.6234 14.6281 36.6234 25.1116 36.6234 35.656C37.2328 35.7779 37.7203 37.3016 37.5375 37.3626C38.3297 37.7892 38.9391 38.5816 39 39.2521C39.0609 39.9835 38.5734 40.7149 38.5125 41.3244C38.4516 41.8729 39.3656 43.1529 38.8172 44.0671C38.5125 44.5547 37.9031 44.8595 37.6594 45.1033C36.6234 45.8957 36.8063 46.688 36.6844 46.9928V47.2975H32.175C33.0281 46.688 33.3328 46.6271 34.4906 46.688C35.3438 46.688 35.1609 46.6271 35.5875 45.4081C35.8922 44.6157 36.1969 44.3109 36.8672 43.8843C37.5984 43.3967 37.5984 43.3967 37.2938 42.6043C36.7453 41.1415 37.05 40.8977 37.4156 39.6787C37.5375 39.1911 37.5375 39.2521 36.6234 38.5816C35.2219 37.5454 35.5875 36.5093 35.1609 36.0217C35.0391 35.8998 34.5516 35.9607 34.3688 35.9607C33.4547 35.9607 33.0281 35.9607 32.3578 35.4122C31.3219 34.6808 31.4438 34.4979 30.6516 35.1684C29.7984 35.8388 29.4328 35.9607 28.3359 35.8998C27.5438 35.8998 27.4828 35.8998 27.3609 36.3264C26.9344 37.4845 27.0562 37.8502 25.7766 38.7035C25.5328 38.8864 25.2281 39.0692 25.1672 39.2521C25.1672 39.4349 25.1062 39.4349 25.35 39.9835C25.7156 41.0806 25.7156 41.4463 25.35 42.4824C25.2281 42.7262 25.1062 43.0919 25.1672 43.2138C25.2281 43.3357 25.5328 43.5795 25.7766 43.7624C26.6906 44.3719 26.9344 44.6766 27.2391 45.7738C27.4828 46.6271 27.4828 46.6271 28.3359 46.5661C29.3719 46.5661 29.7375 46.6271 30.5297 47.1756H26.1422C25.9594 46.8709 25.8375 46.5052 25.7766 46.2004C25.5938 45.469 25.5328 45.469 24.9844 45.0424C24.5578 44.7376 23.9484 44.3719 23.7656 43.7014C23.5828 43.0919 23.7656 42.4215 23.9484 41.9339C24.1922 41.2025 24.1922 41.2025 23.9484 40.4711C23.3391 38.8254 23.6438 38.0331 25.2281 37.1797C25.35 37.1188 25.4719 36.9969 25.5328 36.9359C25.8984 36.4483 25.8375 34.9246 27.1172 34.437C27.8484 34.1322 28.7625 34.376 29.1891 34.2541C29.7375 34.0713 30.7125 32.6694 32.1141 33.2789V28.6467C32.1141 28.22 32.4797 27.8543 32.9062 27.8543C33.3328 27.8543 33.6984 28.22 33.6984 28.6467V34.376C34.0031 34.4979 34.6734 34.376 35.2828 34.437V4.08368C35.2828 2.68182 34.125 1.58471 32.7844 1.58471H4.08281C2.68125 1.58471 1.58437 2.74277 1.58437 4.08368V49.4917C1.58437 50.8936 2.74219 51.9907 4.08281 51.9907H16.4531C16.8797 51.9907 17.2453 52.3564 17.2453 52.7831C17.2453 53.2097 16.8797 53.5754 16.4531 53.5754H4.08281C1.82812 53.5754 0 51.7469 0 49.4917V4.08368C0 1.82851 1.82812 0 4.08281 0ZM26.2031 53.5754H20.1094C19.6828 53.5754 19.3172 53.2097 19.3172 52.7831C19.3172 52.3564 19.6828 51.9907 20.1094 51.9907H26.2031V53.5754ZM26.2031 50.4669H9.38437C8.53125 50.4669 7.86094 49.7965 7.86094 48.9432C7.86094 47.1756 6.45937 45.7738 4.69219 45.7738C3.83906 45.7738 3.16875 45.1033 3.16875 44.25V9.38636C3.16875 8.59401 3.77813 7.8626 4.75313 7.8626C6.45937 7.8626 7.92188 6.46074 7.86094 4.69318C7.86094 3.83988 8.53125 3.16942 9.38437 3.16942H27.3C28.0922 3.16942 28.8234 3.77893 28.8234 4.75413C28.8234 6.46074 30.225 7.8626 31.9922 7.8626C32.8453 7.8626 33.5156 8.53306 33.5156 9.38636V24.9897C33.5156 25.4163 33.15 25.782 32.7234 25.782C32.2969 25.782 31.9313 25.4163 31.9313 24.9897V9.38636C29.3719 9.38636 27.2391 7.2531 27.2391 4.69318H9.38437C9.38437 7.31405 7.3125 9.38636 4.69219 9.38636V44.1281C5.97187 44.1281 7.12969 44.6157 7.98281 45.5299C8.89688 46.4442 9.38437 47.6023 9.38437 48.8213H26.2031V50.4669Z" fill="#134983"/>
<path fill-rule="evenodd" clip-rule="evenodd" d="M25.8984 47.1758V57.4764C25.8984 58.025 26.2031 58.5735 26.6906 58.8173C26.8734 58.9392 27.1172 59.0002 27.3609 59.0002C27.6656 59.0002 27.9703 58.8783 28.2141 58.6954L29.7984 57.5373L31.2609 56.4402L34.3078 58.6954C34.7344 59.0002 35.3438 59.0611 35.8313 58.8173C36.3188 58.5735 36.6234 58.025 36.6234 57.4764V47.1758L32.1141 47.2367C32.1141 47.4805 31.8703 47.8462 31.2609 47.8462C30.6516 47.8462 30.4688 47.5415 30.4078 47.2977L25.8984 47.1758ZM28.5797 56.5012L27.4219 57.3545V48.0291C27.7266 48.4557 28.0313 49.0043 28.5797 49.309V56.5012ZM32.4188 55.4041L32.1141 55.1603C32.0531 55.1603 32.0531 55.0993 31.9922 55.0993C31.7484 54.9774 31.5047 54.9165 31.2609 54.9165C30.9563 54.9165 30.6516 55.0384 30.4078 55.2212L30.1031 55.465V49.37C31.6266 48.8824 30.8344 48.8824 32.4188 49.37V55.4041ZM35.1 57.3545L33.9422 56.5012V49.2481C34.4906 48.9433 34.7953 48.3948 35.1 47.9681V57.3545Z" fill="#134983"/>
<path fill-rule="evenodd" clip-rule="evenodd" d="M22.7295 13.6531C23.0342 13.6531 23.3388 13.2874 23.3388 12.8607C23.3388 12.4341 23.0951 12.0684 22.7295 12.0684H12.7357C12.431 12.0684 12.1263 12.4341 12.1263 12.8607C12.1263 13.2874 12.3701 13.6531 12.7357 13.6531H22.7295Z" fill="#134983"/>
<path fill-rule="evenodd" clip-rule="evenodd" d="M13.9549 34.62C13.9549 34.1933 13.7111 33.8276 13.3455 33.8276H8.34863C8.04395 33.8276 7.73926 34.1933 7.73926 34.62C7.73926 35.0466 7.98301 35.4123 8.34863 35.4123H13.3455C13.6502 35.4123 13.9549 35.0466 13.9549 34.62Z" fill="#134983"/>
<path fill-rule="evenodd" clip-rule="evenodd" d="M7.12988 16.1517C7.12988 16.5784 7.37363 16.9441 7.73926 16.9441H27.7877C28.0924 16.9441 28.3971 16.5784 28.3971 16.1517C28.3971 15.7251 28.1533 15.3594 27.7877 15.3594H7.73926C7.37363 15.3594 7.12988 15.7251 7.12988 16.1517Z" fill="#134983"/>
<path fill-rule="evenodd" clip-rule="evenodd" d="M7.73926 20.1746H27.7877C28.0924 20.1746 28.3971 19.8089 28.3971 19.3822C28.3971 18.9555 28.1533 18.5898 27.7877 18.5898H7.73926C7.43457 18.5898 7.12988 18.9555 7.12988 19.3822C7.12988 19.8089 7.37363 20.1746 7.73926 20.1746Z" fill="#134983"/>
<path fill-rule="evenodd" clip-rule="evenodd" d="M7.73926 23.405H27.7877C28.0924 23.405 28.3971 23.0393 28.3971 22.6127C28.3971 22.186 28.1533 21.8203 27.7877 21.8203H7.73926C7.43457 21.8203 7.12988 22.186 7.12988 22.6127C7.12988 23.1003 7.37363 23.405 7.73926 23.405Z" fill="#134983"/>
<path fill-rule="evenodd" clip-rule="evenodd" d="M7.73926 26.696H27.7877C28.0924 26.696 28.3971 26.3303 28.3971 25.9037C28.3971 25.477 28.1533 25.1113 27.7877 25.1113H7.73926C7.43457 25.1113 7.12988 25.477 7.12988 25.9037C7.12988 26.3303 7.37363 26.696 7.73926 26.696Z" fill="#134983"/>
<path fill-rule="evenodd" clip-rule="evenodd" d="M7.73926 29.9265H27.7877C28.0924 29.9265 28.3971 29.5608 28.3971 29.1342C28.3971 28.7075 28.1533 28.3418 27.7877 28.3418H7.73926C7.43457 28.3418 7.12988 28.7075 7.12988 29.1342C7.12988 29.5608 7.37363 29.9265 7.73926 29.9265Z" fill="#134983"/>
</g>
<defs>
<clipPath id="clip0">
<rect width="39" height="59" fill="white"/>
</clipPath>
</defs>
</svg>
