<svg width="54" height="47" viewBox="0 0 54 47" fill="none" xmlns="http://www.w3.org/2000/svg">
<g clip-path="url(#clip0)">
<path d="M31.9101 4.6571L7.1351 45.6821M25.6241 0.850098L0.850098 41.8751L25.6241 0.850098Z" stroke="#134983" stroke-width="1.7007" stroke-miterlimit="22.9256" stroke-linecap="round" stroke-linejoin="round"/>
<path d="M9.97097 40.9L3.69897 37.169M12.699 36.395L6.42697 32.664L12.699 36.395ZM15.427 31.89L9.15398 28.16L15.427 31.89ZM29.065 9.36601L22.794 5.63501L29.065 9.36601ZM23.61 18.375L17.338 14.644L23.61 18.375ZM20.883 22.881L14.611 19.15L20.883 22.881ZM18.154 27.386L11.883 23.655L18.154 27.386ZM26.338 13.871L20.066 10.14L26.338 13.871Z" stroke="#134983" stroke-width="1.7008" stroke-miterlimit="22.9256" stroke-linecap="round" stroke-linejoin="round"/>
<path d="M52.7961 4.6571L28.0221 45.6821M46.5101 0.850098L21.7361 41.8751L46.5101 0.850098Z" stroke="#134983" stroke-width="1.7007" stroke-miterlimit="22.9256" stroke-linecap="round" stroke-linejoin="round"/>
<path d="M30.857 40.9L24.585 37.17M33.585 36.395L27.313 32.664L33.585 36.395ZM36.312 31.89L30.041 28.159L36.312 31.89ZM49.952 9.36601L43.68 5.63501L49.952 9.36601ZM44.496 18.376L38.225 14.644L44.496 18.376ZM41.768 22.88L35.497 19.149L41.768 22.88ZM39.04 27.386L32.768 23.655L39.04 27.386ZM47.224 13.87L40.952 10.139L47.224 13.87Z" stroke="#134983" stroke-width="1.7008" stroke-miterlimit="22.9256" stroke-linecap="round" stroke-linejoin="round"/>
</g>
<defs>
<clipPath id="clip0">
<rect width="53.646" height="46.532" fill="white"/>
</clipPath>
</defs>
</svg>
