<svg width="15" height="17" viewBox="0 0 15 17" fill="none" xmlns="http://www.w3.org/2000/svg">
<path d="M1.58333 15.725H2.37254C2.58957 15.725 2.76715 15.5338 2.76715 15.3C2.76715 15.0663 2.58957 14.875 2.37254 14.875H1.58333C1.36629 14.875 1.18872 15.0663 1.18872 15.3C1.18872 15.5338 1.36629 15.725 1.58333 15.725Z" fill="#0A2A4F"/>
<path d="M1.58333 14.4501H2.37254C2.58957 14.4501 2.76715 14.2588 2.76715 14.0251C2.76715 13.7913 2.58957 13.6001 2.37254 13.6001H1.58333C1.36629 13.6001 1.18872 13.7913 1.18872 14.0251C1.18872 14.2588 1.36629 14.4501 1.58333 14.4501Z" fill="#0A2A4F"/>
<path d="M9.47557 14.875H8.68636C8.46932 14.875 8.29175 15.0663 8.29175 15.3C8.29175 15.5338 8.46932 15.725 8.68636 15.725H9.47557C9.6926 15.725 9.87018 15.5338 9.87018 15.3C9.87018 15.0663 9.6926 14.875 9.47557 14.875Z" fill="#0A2A4F"/>
<path d="M9.47557 13.6001H8.68636C8.46932 13.6001 8.29175 13.7913 8.29175 14.0251C8.29175 14.2588 8.46932 14.4501 8.68636 14.4501H9.47557C9.6926 14.4501 9.87018 14.2588 9.87018 14.0251C9.87018 13.7913 9.6926 13.6001 9.47557 13.6001Z" fill="#0A2A4F"/>
<path d="M5.13484 5.9501H5.92405C6.14108 5.9501 6.31866 5.75885 6.31866 5.5251C6.31866 5.29135 6.14108 5.1001 5.92405 5.1001H5.13484C4.91781 5.1001 4.74023 5.29135 4.74023 5.5251C4.74023 5.75885 4.91781 5.9501 5.13484 5.9501Z" fill="#0A2A4F"/>
<path d="M5.13484 7.225H5.92405C6.14108 7.225 6.31866 7.03375 6.31866 6.8C6.31866 6.56625 6.14108 6.375 5.92405 6.375H5.13484C4.91781 6.375 4.74023 6.56625 4.74023 6.8C4.74023 7.03375 4.91781 7.225 5.13484 7.225Z" fill="#0A2A4F"/>
<path d="M15 16.15V12.5534V8.075C15 7.84125 14.8224 7.65 14.6054 7.65H11.4485V0.425C11.4485 0.19125 11.271 0 11.0539 0H3.951C3.73397 0 3.5564 0.19125 3.5564 0.425V7.65H0.39954C0.182506 7.65 0.00493259 7.84125 0.00493259 8.075V16.15H0V17H0.00493259H0.794147H1.58336H3.5564H4.34561H6.31865H7.10786H7.89707H8.68629H10.6593H11.4485H13.4216H14.2108H15V16.15ZM11.4485 8.5V10.2H10.6593V8.5H11.4485ZM7.10786 0.85H7.89707V1.7H7.10786V0.85ZM3.5564 8.5H4.34561V10.2H3.5564V8.5ZM7.10786 16.15H0.794147V8.5H2.76718V10.625C2.76718 10.8588 2.94475 11.05 3.16179 11.05H4.74022C4.95725 11.05 5.13482 10.8588 5.13482 10.625V8.5H7.10786V16.15ZM4.34561 7.65V0.85H6.31865V2.125C6.31865 2.35875 6.49622 2.55 6.71325 2.55H8.29168C8.50871 2.55 8.68629 2.35875 8.68629 2.125V0.85H10.6593V7.65H4.34561ZM14.2108 16.15H7.89707V8.5H9.87011V10.625C9.87011 10.8588 10.0477 11.05 10.2647 11.05H11.8431C12.0602 11.05 12.2378 10.8588 12.2378 10.625V8.5H14.2108V16.15Z" fill="#0A2A4F"/>
</svg>
