<svg width="31" height="56" viewBox="0 0 31 56" fill="none" xmlns="http://www.w3.org/2000/svg">
<g clip-path="url(#clip0)">
<path d="M19.5144 39.6951H23.669C24.0762 39.6951 24.4078 39.3031 24.4078 38.8194C24.4078 38.3356 24.0771 37.9436 23.669 37.9436H19.5144C19.1072 37.9436 18.7756 38.3356 18.7756 38.8194C18.7756 39.3031 19.1072 39.6951 19.5144 39.6951Z" fill="#134983"/>
<path d="M13.26 43.3771H17.4146C17.8218 43.3771 18.1534 42.9851 18.1534 42.5013C18.1534 42.0176 17.8227 41.6265 17.4146 41.6265H13.26C12.8528 41.6265 12.5212 42.0185 12.5212 42.5013C12.5212 42.9851 12.8519 43.3771 13.26 43.3771Z" fill="#134983"/>
<path d="M6.38816 47.4744H10.5428C10.95 47.4744 11.2816 47.0824 11.2816 46.5987C11.2816 46.1149 10.9509 45.7229 10.5428 45.7229H6.38816C5.98098 45.7229 5.64941 46.1149 5.64941 46.5987C5.64941 47.0815 5.98007 47.4744 6.38816 47.4744Z" fill="#134983"/>
<path d="M19.5144 24.2164H23.669C24.0762 24.2164 24.4078 23.8243 24.4078 23.3406C24.4078 22.8569 24.0771 22.4648 23.669 22.4648H19.5144C19.1072 22.4648 18.7756 22.8569 18.7756 23.3406C18.7756 23.8252 19.1072 24.2164 19.5144 24.2164Z" fill="#134983"/>
<path d="M13.26 27.8985H17.4146C17.8218 27.8985 18.1534 27.5065 18.1534 27.0227C18.1534 26.539 17.8227 26.147 17.4146 26.147H13.26C12.8528 26.147 12.5212 26.539 12.5212 27.0227C12.5212 27.5065 12.8519 27.8985 13.26 27.8985Z" fill="#134983"/>
<path d="M6.21702 31.9949H10.3717C10.7788 31.9949 11.1104 31.6029 11.1104 31.1192C11.1104 30.6354 10.7788 30.2434 10.3717 30.2434H6.21702C5.80984 30.2434 5.47827 30.6354 5.47827 31.1192C5.47827 31.6029 5.80984 31.9949 6.21702 31.9949Z" fill="#134983"/>
<path d="M29.038 53.2829V0.763428M1.92578 53.2829V0.763428V53.2829Z" stroke="#134983" stroke-width="1.6977" stroke-miterlimit="22.9256" stroke-linecap="round" stroke-linejoin="round"/>
<path fill-rule="evenodd" clip-rule="evenodd" d="M1.96209 52.1265C3.04516 52.1265 3.92328 52.9932 3.92328 54.0623C3.92328 55.1314 3.04516 55.999 1.96209 55.999C0.879026 55.999 0 55.1323 0 54.0632C0 52.9941 0.878115 52.1265 1.96209 52.1265Z" fill="#134983"/>
<path fill-rule="evenodd" clip-rule="evenodd" d="M29.0378 52.1265C30.1209 52.1265 30.9999 52.9932 30.9999 54.0623C30.9999 55.1314 30.1218 55.999 29.0378 55.999C27.9548 55.999 27.0767 55.1314 27.0767 54.0623C27.0767 52.9941 27.9548 52.1265 29.0378 52.1265Z" fill="#134983"/>
<path d="M29.038 35.9267L4.40618 50.3012M1.92578 50.3021H29.0389H1.92578ZM1.92578 18.9366H29.0389H1.92578ZM1.92578 4.03882H29.0389H1.92578ZM1.92578 12.6633H29.0389H1.92578ZM8.12542 4.03882V12.6642V4.03882ZM22.6735 4.03882V12.6642V4.03882ZM29.038 20.2439L4.40618 34.6193L29.038 20.2439ZM1.92578 34.6193H29.0389H1.92578Z" stroke="#134983" stroke-width="2.0432" stroke-miterlimit="22.9256" stroke-linecap="round" stroke-linejoin="round"/>
</g>
<defs>
<clipPath id="clip0">
<rect width="31" height="56" fill="white"/>
</clipPath>
</defs>
</svg>
