<svg width="49" height="67" viewBox="0 0 49 67" fill="none" xmlns="http://www.w3.org/2000/svg">
<path fill-rule="evenodd" clip-rule="evenodd" d="M4.75797 0H37.9217C40.5493 0 42.6797 2.12249 42.6797 4.74023V44.9261C42.1116 44.6431 41.4725 44.3601 40.8333 44.1478V4.74023C40.8333 3.11299 39.4841 1.83949 37.9217 1.83949H4.75797C3.12464 1.83949 1.84638 3.18374 1.84638 4.74023C1.84638 22.2154 1.84638 39.6906 1.84638 57.095C1.84638 58.7223 3.19565 59.9958 4.75797 59.9958H26.4884C26.7725 60.6325 27.1275 61.2693 27.4826 61.8353H4.75797C2.13043 61.8353 0 59.7128 0 57.095C0 39.6199 0 22.1447 0 4.74023C0 2.12249 2.13043 0 4.75797 0ZM3.69275 51.0106C3.69275 51.9303 4.4029 52.7793 5.53913 52.7793C7.52754 52.7793 9.23188 54.4066 9.16087 56.4583C9.16087 57.4488 9.94203 58.227 10.9362 58.227H25.8493C25.7072 57.661 25.5652 57.0243 25.4942 56.3875H10.9362C10.9362 53.3453 8.52174 50.9398 5.46812 50.9398C5.46812 37.5681 5.46812 24.2672 5.46812 10.8955C8.52174 10.8955 10.9362 8.48997 10.9362 5.44773H31.6725C31.6725 8.41922 34.158 10.8955 37.1406 10.8955V35.0919C37.1406 35.5871 37.5667 36.0116 38.0638 36.0116C38.5609 36.0116 38.987 35.5871 38.987 35.0919V10.8955C38.987 9.90496 38.2058 9.12672 37.2116 9.12672C35.1522 9.12672 33.5188 7.49947 33.5188 5.51848C33.5188 4.45723 32.6667 3.67899 31.7435 3.67899H10.9362C9.94203 3.67899 9.16087 4.45723 9.16087 5.44773C9.16087 7.49947 7.52754 9.12672 5.53913 9.12672C4.47391 9.12672 3.69275 9.97571 3.69275 10.8955C3.69275 24.2672 3.69275 37.6389 3.69275 51.0106ZM38.987 43.7233V39.0539C38.987 38.5586 38.5609 38.1341 38.0638 38.1341C37.5667 38.1341 37.1406 38.5586 37.1406 39.0539V43.5818C37.8507 43.5818 38.4188 43.5818 38.987 43.7233ZM37.2116 43.5818C43.6739 43.5818 49 48.8173 49 55.2555C49 61.6938 43.7449 66.9293 37.2826 66.9293C30.8203 66.9293 25.5652 61.6938 25.5652 55.2555C25.4942 48.8173 30.7493 43.5818 37.2116 43.5818ZM37.2116 45.4921C42.6087 45.4921 47.0116 49.8786 47.0116 55.2555C47.0116 60.6325 42.6087 65.019 37.2116 65.019C31.8145 65.019 27.4116 60.6325 27.4116 55.2555C27.4116 49.8786 31.8145 45.4921 37.2116 45.4921ZM34.5841 56.8828L33.3768 55.68C33.0928 55.397 32.6667 55.1848 32.2406 55.1848C31.3884 55.1848 30.6783 55.8923 30.6783 56.7413C30.6783 57.1658 30.8203 57.5903 31.1754 57.8733L33.5188 60.208C33.8029 60.491 34.229 60.6325 34.5841 60.6325C34.9391 60.6325 35.3652 60.491 35.6493 60.208C39.2 56.6705 39.8391 56.0338 43.3188 52.5671C43.6029 52.2841 43.7449 51.8596 43.7449 51.5058C43.7449 50.6568 43.0348 49.9493 42.1826 49.9493C41.7565 49.9493 41.4015 50.0908 41.1174 50.3738L34.5841 56.8828ZM22.1565 42.8743H32.2406C32.7377 42.8743 33.0928 42.5206 33.0928 42.0253C33.0928 41.5301 32.7377 41.1763 32.2406 41.1763H22.1565C21.6594 41.1763 21.3043 41.5301 21.3043 42.0253C21.3043 42.5206 21.6594 42.8743 22.1565 42.8743ZM22.1565 30.4224H32.2406C32.7377 30.4224 33.0928 30.0686 33.0928 29.5734C33.0928 29.0781 32.7377 28.7244 32.2406 28.7244H22.1565C21.6594 28.7244 21.3043 29.0781 21.3043 29.5734C21.3043 29.9979 21.6594 30.4224 22.1565 30.4224ZM22.1565 17.8997H32.2406C32.7377 17.8997 33.0928 17.5459 33.0928 17.0507C33.0928 16.5554 32.7377 16.2017 32.2406 16.2017H22.1565C21.6594 16.2017 21.3043 16.5554 21.3043 17.0507C21.3043 17.4752 21.6594 17.8997 22.1565 17.8997ZM11.2913 14.0792H16.9725L14.2739 16.7677L13.5638 16.0602C13.4217 15.9187 13.2087 15.7772 12.9246 15.7772C12.4275 15.7772 12.0725 16.1309 12.0725 16.6262C12.0725 16.8384 12.1435 17.0507 12.3565 17.2629L13.6348 18.5364C13.7768 18.6779 13.9899 18.8194 14.2029 18.8194C14.4159 18.8194 14.629 18.7487 14.842 18.5364L17.1855 16.2017V20.0222H11.2203V14.0792H11.2913ZM10.4391 21.7202H18.1087C18.6058 21.7202 18.9609 21.3664 18.9609 20.8712V14.5037L20.6652 12.8057C20.8072 12.6642 20.8783 12.452 20.8783 12.2397C20.8783 11.7445 20.5232 11.3907 20.0261 11.3907C19.813 11.3907 19.6 11.4615 19.458 11.603L18.5348 12.5227C18.3928 12.452 18.2507 12.3812 18.1087 12.3812H10.4391C9.94203 12.3812 9.58696 12.735 9.58696 13.2302V20.8712C9.58696 21.2957 9.94203 21.7202 10.4391 21.7202ZM11.2913 39.0539H16.9725L14.2739 41.7423L13.5638 41.0349C13.4217 40.8934 13.2087 40.8226 12.9957 40.8226C12.4986 40.8226 12.1435 41.1763 12.1435 41.6716C12.1435 41.8839 12.2145 42.0961 12.3565 42.2376L13.6348 43.5111C13.7768 43.6526 13.9899 43.7941 14.2029 43.7941C14.4159 43.7941 14.629 43.7233 14.842 43.5111L17.1855 41.1763V44.9968H11.2203V39.0539H11.2913ZM10.4391 46.6948H18.1087C18.6058 46.6948 18.9609 46.3411 18.9609 45.8458V39.4784L20.6652 37.7804C20.8072 37.6389 20.9493 37.4266 20.9493 37.1436C20.9493 36.6484 20.5942 36.2946 20.0971 36.2946C19.8841 36.2946 19.671 36.3654 19.458 36.5776L18.5348 37.4974C18.3928 37.4266 18.2507 37.3559 18.1087 37.3559H10.4391C9.94203 37.3559 9.58696 37.7096 9.58696 38.2049V45.8458C9.58696 46.3411 9.94203 46.6948 10.4391 46.6948ZM11.2913 26.6019H16.9725L14.2739 29.2904L13.5638 28.5829C13.4217 28.4414 13.2087 28.3706 12.9957 28.3706C12.4986 28.3706 12.1435 28.7244 12.1435 29.2196C12.1435 29.4319 12.2145 29.6441 12.3565 29.7856L13.6348 31.0591C13.7768 31.2006 13.9899 31.3421 14.2029 31.3421C14.4159 31.3421 14.629 31.2714 14.842 31.0591L17.1855 28.7244V32.5449H11.2203V26.6019H11.2913ZM10.4391 34.2429H18.1087C18.6058 34.2429 18.9609 33.8891 18.9609 33.3939V27.0264L20.6652 25.3284C20.8072 25.1869 20.8783 24.9747 20.8783 24.7624C20.8783 24.2672 20.5232 23.9134 20.0261 23.9134C19.813 23.9134 19.6 23.9842 19.458 24.1257L18.5348 25.0454C18.3928 24.9747 18.2507 24.9039 18.1087 24.9039H10.4391C9.94203 24.9039 9.58696 25.2577 9.58696 25.7529V33.3939C9.58696 33.8184 9.94203 34.2429 10.4391 34.2429Z" fill="#134983"/>
</svg>
