<svg width="21" height="15" viewBox="0 0 21 15" fill="none" xmlns="http://www.w3.org/2000/svg">
<path d="M20.593 2.99C20.4791 2.58501 20.2565 2.21567 19.9473 1.91874C19.6382 1.62182 19.2533 1.40766 18.831 1.29758C17.265 0.8855 11 0.878791 11 0.878791C11 0.878791 4.73596 0.872083 3.16896 1.26596C2.74689 1.3811 2.36278 1.59829 2.05353 1.89667C1.74427 2.19505 1.52025 2.56462 1.40296 2.96988C0.989964 4.47063 0.985963 7.58329 0.985963 7.58329C0.985963 7.58329 0.981963 10.7113 1.39196 12.1967C1.62196 13.018 2.29696 13.6668 3.15496 13.8882C4.73696 14.3003 10.985 14.307 10.985 14.307C10.985 14.307 17.25 14.3137 18.816 13.9208C19.2385 13.8109 19.6237 13.5972 19.9336 13.3009C20.2435 13.0046 20.4673 12.6359 20.583 12.2312C20.997 10.7314 21 7.61971 21 7.61971C21 7.61971 21.02 4.49075 20.593 2.99ZM8.99596 10.4669L9.00096 4.71692L14.208 7.59671L8.99596 10.4669Z" fill="#7089A4"/>
</svg>
