<svg width="70" height="67" viewBox="0 0 70 67" fill="none" xmlns="http://www.w3.org/2000/svg">
<g clip-path="url(#clip0)">
<path d="M66.9444 19.4266L61.1973 16.438V7.12128C61.1973 3.19457 57.9997 0 54.0692 0H15.9296C11.9991 0 8.80142 3.19457 8.80142 7.12128V16.4408L3.0545 19.4295C1.17031 20.4047 0 22.3258 0 24.4434V61.3441C0 64.4627 2.53962 66.9999 5.66137 66.9999H64.3375C67.4591 67 69.9988 64.4628 69.9988 61.3441V28.4329C70.0005 28.3889 70.0003 28.354 69.9989 28.319L69.9988 28.3109V24.4434C69.9988 22.3268 68.8284 20.4046 66.9444 19.4266ZM11.3226 7.12128C11.3226 4.58343 13.3893 2.51875 15.9296 2.51875H54.069C56.6093 2.51875 58.676 4.58343 58.676 7.12128V32.1938L37.1308 43.4252C36.4641 43.7736 35.7325 43.9478 35.0009 43.9478C34.2691 43.9478 33.5377 43.7736 32.8705 43.425L11.3226 32.1923V7.12128ZM2.52119 24.4434C2.52119 23.2716 3.17085 22.2064 4.2167 21.6637L8.80142 19.2794V30.878L2.52119 27.6042V24.4434ZM67.4776 61.3441C67.4776 63.0738 66.0689 64.4811 64.3375 64.4811H5.66137C3.92997 64.4811 2.52133 63.0738 2.52133 61.3441V30.4473L9.33789 34.0026C9.42563 34.0643 9.52272 34.1149 9.62655 34.1531L9.65075 34.1638L31.7034 45.6597C32.7197 46.187 33.8595 46.4657 34.9994 46.4657C36.1385 46.4657 37.2794 46.187 38.299 45.6594L60.3689 34.1546L60.3806 34.1502C60.4798 34.113 60.572 34.0649 60.6551 34.0072L60.6772 33.9937L67.4776 30.4488V61.3441ZM67.4776 27.6058L61.1973 30.8797V19.2765L65.7825 21.6609C66.828 22.2067 67.4774 23.2728 67.4774 24.4433V27.6058H67.4776Z" fill="white"/>
<path d="M49.8744 32.0346C49.8744 32.7289 50.4399 33.294 51.1351 33.294C51.8301 33.294 52.3958 32.7291 52.3958 32.0346V5.65593C52.3958 4.96143 51.8303 4.39648 51.1351 4.39648C50.4399 4.39648 49.8744 4.96143 49.8744 5.65593V6.16015L20.1265 14.2654L20.0673 14.0754C19.9027 13.5455 19.4188 13.1894 18.8632 13.1894C18.1682 13.1894 17.6025 13.7543 17.6025 14.4488V23.2417C17.6025 23.9361 18.168 24.5011 18.8632 24.5011C19.4141 24.5011 19.8968 24.1487 20.0642 23.6242L20.1246 23.4349L24.4251 24.6355L24.2843 24.8677C23.7517 25.7456 23.4702 26.7542 23.4702 27.7847C23.4702 30.9035 26.0098 33.4406 29.1316 33.4406C32.2442 33.4406 34.7837 30.9106 34.7925 27.8008L34.7932 27.53L49.8744 31.7404V32.0346ZM29.1314 30.9217C27.4 30.9217 25.9914 29.5145 25.9914 27.7847C25.9914 26.8707 26.3751 26.0234 27.044 25.4601L27.1273 25.3899L32.107 26.7801L32.141 26.8857C32.2288 27.1581 32.2715 27.4523 32.2715 27.7847C32.2716 29.5145 30.863 30.9217 29.1314 30.9217ZM33.4071 24.5272C33.3451 24.5046 33.2809 24.4867 33.216 24.4739L33.2004 24.4702L20.1237 20.8187V16.8765L20.2757 16.835L49.8743 8.76833V29.1259L33.4071 24.5272Z" fill="white"/>
</g>
<defs>
<clipPath id="clip0">
<rect width="70" height="67" fill="white"/>
</clipPath>
</defs>
</svg>
