<svg width="61" height="61" viewBox="0 0 61 61" fill="none" xmlns="http://www.w3.org/2000/svg">
<path d="M18.5977 5.45509C19.0085 5.45509 19.3416 5.12203 19.3416 4.71119C19.3416 4.30034 19.0085 3.96729 18.5977 3.96729C18.1868 3.96729 17.8538 4.30034 17.8538 4.71119C17.8538 5.12203 18.1868 5.45509 18.5977 5.45509Z" fill="#134983"/>
<path d="M35.2113 3.96729H21.821V5.45509H35.2113V3.96729Z" fill="#134983"/>
<path d="M39.1789 11.9023H29.7561V13.3902H39.1789V11.9023Z" fill="#134983"/>
<path d="M39.179 15.8701H37.6912V17.3579H39.179V15.8701Z" fill="#134983"/>
<path d="M35.2114 15.8701H29.7561V17.3579H35.2114V15.8701Z" fill="#134983"/>
<path d="M39.1789 19.8374H29.7561V21.3252H39.1789V19.8374Z" fill="#134983"/>
<path d="M39.1789 23.8047H29.7561V25.2925H39.1789V23.8047Z" fill="#134983"/>
<path d="M55.5943 35.7073C55.1604 34.6039 54.5033 33.6244 53.6726 32.7937L47.1138 26.2226V4.71138C47.1138 2.10772 45.0061 0 42.4024 0H10.6626C8.05894 0 5.95122 2.10772 5.95122 4.71138V28.0451L3.13679 30.8596C1.11585 32.8805 0 35.5709 0 38.435C0 39.0177 0.0495935 39.6128 0.14878 40.1955L1.68618 49.4571C1.89695 50.7217 2.24411 51.974 2.72764 53.1642L3.96748 56.2638V61H17.3577V56.4374L18.0644 54.6768C18.238 54.2553 18.3868 53.7965 18.5604 53.2386L18.61 53.065H48.4776L61 60.5785V42.0305L56.8961 38.9557L55.5943 35.7073ZM52.6311 33.8476C53.3254 34.5419 53.8585 35.3478 54.2181 36.2652L55.4207 39.2533L45.1177 49.5563L40.7659 48.9364C39.4392 48.7504 38.1994 48.1925 37.1827 47.337L35.1742 45.6632C34.1079 44.7829 32.8185 44.1506 31.4423 43.8531L31.2439 43.8159V43.6423H29.4585C28.8014 43.6423 28.2683 43.1091 28.2683 42.452C28.2683 42.0553 28.4667 41.6833 28.8014 41.4602L29.1734 41.2122C30.19 40.5303 31.3803 40.1707 32.5953 40.1707C34.2443 40.1707 35.7941 40.8154 36.9596 41.9809L37.7283 42.7496L38.7821 41.6957L24.6976 27.6112C24.4372 27.3508 24.3008 27.0161 24.3008 26.6441C24.3008 25.9002 24.9083 25.2803 25.6646 25.2803C26.0242 25.2803 26.3713 25.4167 26.6317 25.677L38.7325 37.7778L39.7864 36.724L35.6205 32.5581C35.3726 32.2978 35.2238 31.9506 35.2238 31.5911C35.2238 30.8472 35.8313 30.2272 36.5876 30.2272C36.9472 30.2272 37.2943 30.3636 37.5547 30.624L41.7205 34.7898L42.7744 33.736L38.6085 29.5701C38.3482 29.3098 38.2118 28.975 38.2118 28.603C38.2118 27.8591 38.8193 27.2392 39.5756 27.2392C39.9352 27.2392 40.2823 27.3756 40.5427 27.636L44.7085 31.8018L45.7624 30.748L43.5803 28.5659C43.3199 28.3055 43.1835 27.9707 43.1835 27.5988C43.1835 26.8549 43.7911 26.235 44.5474 26.235C44.9069 26.235 45.2541 26.3713 45.5144 26.6317L52.6311 33.8476ZM29.7561 45.1301V47.6098H23.3089V45.1301H29.7561ZM29.7561 34.7774V35.7073H27.2764V33.2276H28.2063L29.7561 34.7774ZM23.3089 17.3577V13.3902H25.7886V23.8049H15.374V13.3902H17.8537V17.3577H23.3089ZM19.3415 15.8699V13.3902H21.8211V15.8699H19.3415ZM7.43902 4.71138C7.43902 2.93841 8.88963 1.4878 10.6626 1.4878H42.4024C44.1754 1.4878 45.626 2.93841 45.626 4.71138V25.0199L45.3037 24.9207C45.0061 24.8339 44.7457 24.7967 44.4978 24.7967C44.163 24.7967 43.8159 24.8587 43.4811 24.9951L43.1463 25.1315V7.93496H9.9187V44.1506L9.8939 44.2002C9.85671 44.2746 9.81951 44.349 9.79472 44.4234C9.70793 44.6217 9.60874 44.8201 9.50955 45.0185C9.32358 45.3904 8.95163 45.626 8.53008 45.626C7.92256 45.626 7.43902 45.1301 7.43902 44.535V4.71138ZM15.8699 59.5122H5.45528V57.0325H15.8699V59.5122ZM16.6758 54.1189L16.1055 55.5447H5.28171L4.10386 52.6063C3.66992 51.5152 3.34756 50.3746 3.14919 49.2091L1.61179 39.9476C1.525 39.4392 1.4878 38.9309 1.4878 38.435C1.4878 35.9677 2.44248 33.6492 4.19065 31.901L5.95122 30.1404V44.5226C5.95122 45.9484 7.10427 47.1014 8.53008 47.1014C9.50955 47.1014 10.4022 46.5559 10.8362 45.6756C11.8404 43.6795 12.6215 41.5593 13.1671 39.3772L13.911 36.4016C14.0846 35.6949 14.7169 35.199 15.4484 35.199C16.2667 35.199 16.961 35.8437 17.023 36.662L17.8041 46.7543C17.8413 47.1758 17.8537 47.5974 17.8537 48.0189C17.8537 50.1142 17.4569 52.1724 16.6758 54.1189ZM18.5604 37.1951H23.3089V31.7398H17.8537V34.827L17.4445 34.4799C16.8866 33.9963 16.1799 33.7236 15.4484 33.7236C14.035 33.7236 12.8075 34.6783 12.4728 36.0421L11.4065 40.3319V9.42276H41.6585V26.6813L41.2618 26.3837C40.7535 25.9994 40.1583 25.801 39.5508 25.801C38.0134 25.801 36.7736 27.0037 36.7116 28.5535L36.6992 28.7642L36.4636 28.7766C35.3726 28.8138 34.4055 29.4585 33.9591 30.4628L33.8104 30.7976L27.6608 24.648C27.5864 24.5736 27.4996 24.5116 27.4128 24.4372L27.264 24.3256V11.9024H13.8862V25.2927H23.1478L23.0114 25.6274C22.875 25.9622 22.813 26.3093 22.813 26.6441C22.813 26.8921 22.8502 27.1524 22.937 27.45L23.0362 27.7724H13.8862V29.2602H24.2388L26.7185 31.7398H25.7886V37.1951H31.2439V36.2652L33.7236 38.7449L32.9549 38.6953C32.8309 38.6829 32.7069 38.6829 32.5829 38.6829C31.3307 38.6829 30.0537 39.0177 28.913 39.65L28.8634 39.6748H18.7463L18.5604 37.1951ZM19.3415 35.7073V33.2276H21.8211V35.7073H19.3415ZM18.9819 51.5772L19.0315 51.2797C19.2299 50.1886 19.3415 49.0976 19.3415 48.0189C19.3415 47.5602 19.3291 47.1014 19.2919 46.6427L18.8703 41.1626H27.1028L26.9789 41.4974C26.8425 41.8445 26.7805 42.1545 26.7805 42.452C26.7805 42.7248 26.8301 43.01 26.9417 43.3199L27.0533 43.6547H21.8211V49.11H31.2439V45.3533L31.5539 45.44C32.5705 45.7252 33.4632 46.1839 34.2071 46.8163L36.2157 48.49C37.4555 49.5191 38.9557 50.1886 40.5427 50.4118L45.1053 51.0689L45.9856 51.5896H18.9819V51.5772ZM59.5122 57.95L46.5807 50.1886L56.363 40.4063L59.5122 42.7744V57.95Z" fill="#134983"/>
<path d="M13.8862 11.9023V25.2926L23.123 25.3546C23.123 25.3546 23.0982 25.4538 23.1478 25.2926C23.4578 24.3751 24.8588 23.8048 24.8588 23.8048H15.374V13.3901H17.8537V17.3576H23.309V13.3901H25.7887C25.7887 13.3901 25.7887 22.7261 25.7887 23.8048C26.4582 23.8048 27.2765 24.3131 27.2765 24.3131V11.9023H13.8862ZM21.8212 15.8698H19.3415V13.3901H21.8212V15.8698Z" fill="#134983"/>
</svg>
