<svg width="34" height="51" viewBox="0 0 34 51" fill="none" xmlns="http://www.w3.org/2000/svg">
<g clip-path="url(#clip0)">
<path d="M14.9133 0.791016H32.1625V16.6865H14.9133V0.791016Z" stroke="#134983" stroke-width="1.7008" stroke-miterlimit="22.9256" stroke-linejoin="round"/>
<path d="M14.9135 16.6863L3.90161 49.0941" stroke="#134983" stroke-width="1.7007" stroke-miterlimit="22.9256"/>
<path d="M32.1626 16.4863L32.2151 48.7527" stroke="#134983" stroke-width="1.7007" stroke-miterlimit="22.9256"/>
<path d="M3.52847 51C2.52915 51 1.7168 50.1802 1.7168 49.1715C1.7168 48.1628 2.52915 47.343 3.52847 47.343C4.52687 47.343 5.33923 48.1628 5.33923 49.1715C5.33923 50.1802 4.52687 51 3.52847 51Z" fill="#134983"/>
<path d="M32.1884 51C31.19 51 30.3777 50.1802 30.3777 49.1715C30.3777 48.1628 31.19 47.343 32.1884 47.343C33.1878 47.343 34.0001 48.1628 34.0001 49.1715C34.0001 50.1802 33.1878 51 32.1884 51Z" fill="#134983"/>
<path d="M14.9133 9.83957H32.1624M14.9133 0.791016C9.97194 7.8538 5.45426 14.4671 3.04576 18.193C1.64394 20.3621 -0.610749 23.3733 1.94696 25.5629C5.04348 27.9683 6.07412 28.669 10.1202 31.4643L14.9133 0.791016Z" stroke="#134983" stroke-width="1.7007" stroke-miterlimit="22.9256"/>
<path d="M15.3775 17.0978L8.08936 10.4165" stroke="#134983" stroke-width="1.7007" stroke-miterlimit="22.9256"/>
<path d="M15.211 23.0075H11.0101C10.5984 23.0075 10.2632 22.6018 10.2632 22.1012C10.2632 21.6005 10.5975 21.1948 11.0101 21.1948H15.211C15.6236 21.1948 15.9589 21.6005 15.9589 22.1012C15.9579 22.6018 15.6236 23.0075 15.211 23.0075Z" fill="#134983"/>
<path d="M10.1902 38.2748H5.98939C5.57769 38.2748 5.24243 37.8691 5.24243 37.3685C5.24243 36.8679 5.57769 36.4622 5.98939 36.4622H10.1902C10.6019 36.4622 10.9372 36.8679 10.9372 37.3685C10.9363 37.8682 10.6019 38.2748 10.1902 38.2748Z" fill="#134983"/>
<path d="M31.9582 45.4093L9.5061 31.0417" stroke="#134983" stroke-width="1.701" stroke-miterlimit="22.9256"/>
<path d="M5.32715 45.0994H32.1624" stroke="#134983" stroke-width="1.7007" stroke-miterlimit="22.9256"/>
</g>
<defs>
<clipPath id="clip0">
<rect width="34" height="51" fill="white"/>
</clipPath>
</defs>
</svg>
