<svg xmlns="http://www.w3.org/2000/svg" viewBox="0 0 40 39" width="40" height="39">
	<style>
		tspan { white-space:pre }
		.shp0 { fill: #134983 } 
	</style>
	<path id="Layer" fill-rule="evenodd" class="shp0" d="M38.36 33.48L37.69 34.99L33.42 30.84L31.58 32.63L35.85 36.79L34.29 37.43C33.32 37.83 32.29 38.04 31.25 38.04C30.77 38.04 30.31 38 29.84 37.92C28.29 37.63 26.87 36.91 25.76 35.83C24.05 34.17 23.4 32.02 23.94 29.78C23.99 29.57 23.92 29.36 23.76 29.2L17.73 23.33L15.65 25.35L17.6 27.25L9.19 37.24C8.25 38.31 6.87 38.95 5.42 39C5.36 39 5.3 39 5.23 39C3.85 39 2.52 38.47 1.53 37.51C0.5 36.51 -0.05 35.13 0 33.72C0.05 32.31 0.72 30.98 1.81 30.06L1.83 30.03L12.09 21.88L14.04 23.78L16.12 21.76L10.03 15.84C9.88 15.69 9.66 15.62 9.45 15.67C7.2 16.14 5.03 15.5 3.35 13.87C2.23 12.78 1.49 11.41 1.21 9.91C0.92 8.44 1.1 6.94 1.7 5.57L2.37 4.06L6.64 8.21L8.49 6.4L4.22 2.25L5.78 1.6C7.18 1.01 8.72 0.85 10.23 1.12C11.78 1.4 13.19 2.12 14.31 3.2C16.02 4.87 16.66 7.02 16.13 9.25C16.08 9.46 16.15 9.68 16.31 9.83L22.33 15.69L30.62 7.63L29.1 6.15L34.38 1.01L38.99 5.48L33.7 10.63L32.25 9.22L23.96 17.28L30.04 23.18C30.19 23.34 30.42 23.41 30.62 23.36C32.88 22.89 35.05 23.52 36.73 25.16C37.85 26.25 38.59 27.61 38.87 29.12C39.15 30.59 38.98 32.09 38.36 33.48ZM35.11 26.74C33.99 25.65 32.61 25.23 31.11 25.54C30.14 25.74 29.13 25.45 28.42 24.76L14.69 11.4C13.96 10.7 13.67 9.71 13.89 8.75C14.14 7.72 14.13 6.19 12.68 4.78C11.54 3.68 10.01 3.14 8.47 3.24L11.74 6.42L6.64 11.37L3.38 8.21C3.27 9.71 3.83 11.2 4.97 12.3C6.09 13.39 7.47 13.81 8.97 13.5C9.16 13.45 9.37 13.43 9.58 13.43C10.35 13.43 11.09 13.72 11.65 14.27L25.39 27.63C26.11 28.33 26.41 29.33 26.18 30.29C25.94 31.32 25.94 32.84 27.39 34.25C28.53 35.36 30.06 35.9 31.61 35.79L28.34 32.62L33.43 27.67L36.7 30.84C36.8 29.34 36.24 27.85 35.11 26.74ZM11.51 30.96L8.26 27.8L3.3 31.75C2.69 32.27 2.33 33 2.3 33.8C2.28 34.21 2.36 34.61 2.51 34.98L5.36 32.21C5.81 31.77 6.53 31.77 6.98 32.21C7.43 32.65 7.43 33.35 6.98 33.79L4.14 36.56C4.52 36.71 4.92 36.78 5.35 36.77C6.17 36.74 6.91 36.39 7.45 35.79L11.51 30.96ZM14.51 27.4L11.93 24.88L10.04 26.38L12.97 29.23L14.51 27.4ZM32.34 6.15L33.7 7.48L35.75 5.49L34.38 4.16L32.34 6.15Z" />
</svg>