<svg width="23" height="22" viewBox="0 0 23 22" fill="none" xmlns="http://www.w3.org/2000/svg">
<path d="M21.5317 15.1362H6.99316L7.72314 13.6494L19.8521 13.6274C20.2622 13.6274 20.6138 13.3345 20.687 12.9292L22.3667 3.52734C22.4106 3.28076 22.3447 3.02686 22.1836 2.83398C22.104 2.73906 22.0046 2.6626 21.8925 2.6099C21.7803 2.55721 21.6581 2.52954 21.5342 2.52881L6.10449 2.47754L5.97266 1.85742C5.88965 1.46191 5.5332 1.17383 5.12793 1.17383H1.35596C1.12739 1.17383 0.908183 1.26463 0.746561 1.42625C0.584939 1.58787 0.494141 1.80708 0.494141 2.03564C0.494141 2.26421 0.584939 2.48342 0.746561 2.64504C0.908183 2.80666 1.12739 2.89746 1.35596 2.89746H4.42969L5.00586 5.63672L6.42432 12.5044L4.59814 15.4854C4.50331 15.6134 4.44619 15.7653 4.43324 15.9241C4.4203 16.0829 4.45205 16.2421 4.5249 16.3838C4.67139 16.6743 4.9668 16.8574 5.29395 16.8574H6.82715C6.50029 17.2916 6.32374 17.8203 6.32422 18.3638C6.32422 19.7456 7.44727 20.8687 8.8291 20.8687C10.2109 20.8687 11.334 19.7456 11.334 18.3638C11.334 17.8193 11.1533 17.2896 10.8311 16.8574H14.7642C14.4373 17.2916 14.2608 17.8203 14.2612 18.3638C14.2612 19.7456 15.3843 20.8687 16.7661 20.8687C18.1479 20.8687 19.271 19.7456 19.271 18.3638C19.271 17.8193 19.0903 17.2896 18.7681 16.8574H21.5342C22.0078 16.8574 22.396 16.4717 22.396 15.9956C22.3946 15.7673 22.3029 15.5488 22.141 15.3878C21.9791 15.2268 21.7601 15.1364 21.5317 15.1362ZM6.46338 4.17676L20.521 4.22314L19.144 11.9331L8.10156 11.9526L6.46338 4.17676ZM8.8291 19.1353C8.4043 19.1353 8.05762 18.7886 8.05762 18.3638C8.05762 17.939 8.4043 17.5923 8.8291 17.5923C9.25391 17.5923 9.60059 17.939 9.60059 18.3638C9.60059 18.5684 9.5193 18.7646 9.37462 18.9093C9.22994 19.054 9.03371 19.1353 8.8291 19.1353ZM16.7661 19.1353C16.3413 19.1353 15.9946 18.7886 15.9946 18.3638C15.9946 17.939 16.3413 17.5923 16.7661 17.5923C17.1909 17.5923 17.5376 17.939 17.5376 18.3638C17.5376 18.5684 17.4563 18.7646 17.3116 18.9093C17.167 19.054 16.9707 19.1353 16.7661 19.1353Z" fill="#134983" stroke="white" stroke-width="0.5"/>
</svg>
