<svg width="45" height="52" viewBox="0 0 45 52" fill="none" xmlns="http://www.w3.org/2000/svg">
<path fill-rule="evenodd" clip-rule="evenodd" d="M35.8696 11.721L38.087 7.90037C38.1522 7.77086 38.2174 7.64134 38.2174 7.51183C38.2174 7.2528 38.087 6.99377 37.8261 6.86426L34.6957 5.05106C34.5652 4.9863 34.4348 4.92154 34.3043 4.92154C34.0435 4.92154 33.7826 5.05106 33.6522 5.31009L31.4348 9.13076C29.413 8.28892 27.3261 7.7061 25.1087 7.44707V5.11582H26.6739C27.1304 5.11582 27.4565 4.79203 27.4565 4.33873V0.777086C27.3913 0.323786 27.0652 0 26.6087 0H18.3261C17.8696 0 17.5435 0.323786 17.5435 0.777086V4.40349C17.5435 4.85679 17.8696 5.18057 18.3261 5.18057H19.8913V7.51183C17.7391 7.77086 15.587 8.35367 13.5652 9.19552L11.3478 5.37484C11.2174 5.11582 10.9565 4.9863 10.6957 4.9863C10.5652 4.9863 10.4348 5.05106 10.3043 5.11582L7.17391 6.7995C6.91304 6.92902 6.78261 7.18804 6.78261 7.44707C6.78261 7.57659 6.84783 7.7061 6.91304 7.83562L9.13043 11.6563C3.3913 15.9303 0 22.6002 0 29.6588C0 41.9626 10.0435 52 22.5 52C34.8913 52 45 42.0274 45 29.6588C45 22.6002 41.6087 15.9303 35.8696 11.721ZM36.3261 7.77086L34.5652 10.8144C33.9783 10.4259 33.3913 10.1021 32.7391 9.77833L34.5652 6.73474L36.3261 7.77086ZM19.1087 1.55417H25.8913V3.6264H19.1087V1.55417ZM21.4565 5.11582H23.5435V7.31756C23.2174 7.31756 22.8261 7.31756 22.5 7.31756C22.1739 7.31756 21.7826 7.31756 21.4565 7.31756V5.11582ZM8.6087 7.77086L10.4348 6.73474L12.1957 9.84309C11.5435 10.1669 10.9565 10.4907 10.3696 10.8792L8.6087 7.77086ZM22.5 50.4458C10.9565 50.4458 1.56522 41.1208 1.56522 29.6588C1.56522 18.1968 10.9565 8.87173 22.5 8.87173C34.0435 8.87173 43.4348 18.1968 43.4348 29.6588C43.4348 41.1208 34.0435 50.4458 22.5 50.4458ZM37.6304 38.2715C39.1304 35.6812 39.913 32.7024 39.913 29.6588C39.913 26.6152 39.0652 23.6364 37.5652 20.9813C37.5652 20.9813 37.5652 20.9166 37.5 20.9166C37.5 20.9166 37.5 20.8518 37.4348 20.8518C35.9348 18.3263 33.7826 16.1893 31.2391 14.6999L31.1739 14.6351C31.1739 14.6351 31.1087 14.6351 31.1087 14.5704C28.5 13.0809 25.5 12.3039 22.4348 12.3039C19.3696 12.3039 16.3696 13.1457 13.6957 14.6351C13.6957 14.6351 13.6304 14.6351 13.6304 14.6999C13.6304 14.6999 13.5652 14.6999 13.5652 14.7646C11.0217 16.254 8.86957 18.391 7.36957 20.9166C7.30435 20.9813 7.30435 20.9813 7.30435 21.0461C5.80435 23.6364 5.02174 26.6152 5.02174 29.6588C5.02174 32.7024 5.86957 35.6812 7.36957 38.3362C7.36957 38.3362 7.36957 38.401 7.43478 38.401C7.43478 38.401 7.43478 38.401 7.5 38.4658C9 40.9913 11.1522 43.1283 13.6957 44.6177L13.7609 44.6824H13.8261C16.4348 46.1719 19.4348 47.0137 22.5 47.0137C25.5652 47.0137 28.6304 46.1719 31.3043 44.6824H31.3696C31.3696 44.6824 31.4348 44.6824 31.4348 44.6177C33.9783 43.1283 36.1304 40.9913 37.6304 38.4658C37.6304 38.4658 37.6304 38.4658 37.6957 38.401C37.6304 38.3362 37.6304 38.2715 37.6304 38.2715ZM31.1739 42.8692L30.1957 41.1856C30.0652 40.9265 29.8043 40.797 29.5435 40.797C29.087 40.797 28.7609 41.1208 28.7609 41.5741C28.7609 41.7036 28.8261 41.8331 28.8913 41.9626L29.8696 43.6463C27.8478 44.6824 25.5652 45.33 23.2826 45.4595V43.5168C23.2826 43.0635 22.9565 42.7397 22.5 42.7397C22.0435 42.7397 21.7174 43.0635 21.7174 43.5168V45.4595C19.4348 45.33 17.2174 44.7472 15.1957 43.7111L16.1739 42.0274C16.2391 41.8979 16.2391 41.7684 16.2391 41.6389C16.2391 41.1856 15.913 40.8618 15.4565 40.8618C15.1957 40.8618 14.9348 40.9913 14.8043 41.2503L13.8261 42.934C11.9348 41.7036 10.3696 40.1494 9.13043 38.2715L10.8261 37.3001C11.087 37.1706 11.2174 36.9116 11.2174 36.6525C11.2174 36.1992 10.8913 35.8755 10.4348 35.8755C10.3043 35.8755 10.1739 35.9402 10.0435 36.005L8.34783 36.9763C7.30435 34.9689 6.65217 32.7024 6.52174 30.4359H8.47826C8.93478 30.4359 9.26087 30.1121 9.26087 29.6588C9.26087 29.2055 8.93478 28.8817 8.47826 28.8817H6.52174C6.65217 26.6152 7.23913 24.4134 8.28261 22.406L9.97826 23.3773C10.1087 23.4421 10.2391 23.4421 10.3696 23.4421C10.8261 23.4421 11.1522 23.1183 11.1522 22.665C11.1522 22.406 11.0217 22.1469 10.7609 22.0174L9.13043 21.1108C10.3696 19.2329 11.9348 17.6787 13.8261 16.4483L14.8043 18.132C14.9348 18.391 15.1957 18.5205 15.4565 18.5205C15.913 18.5205 16.2391 18.1968 16.2391 17.7435C16.2391 17.6139 16.1739 17.4844 16.1087 17.3549L15.1304 15.6712C17.1522 14.6351 19.4348 13.9875 21.7174 13.858V15.8007C21.7174 16.254 22.0435 16.5778 22.5 16.5778C22.9565 16.5778 23.2826 16.254 23.2826 15.8007V13.858C25.5652 13.9875 27.7826 14.5704 29.8043 15.6065L28.8261 17.2902C28.6957 17.4197 28.6957 17.5492 28.6957 17.6787C28.6957 18.132 29.0217 18.4558 29.4783 18.4558C29.7391 18.4558 30 18.3263 30.1304 18.0672L31.1087 16.3836C33 17.6139 34.5652 19.1681 35.8044 21.0461L34.1087 22.0174C33.8478 22.1469 33.7174 22.406 33.7174 22.665C33.7174 23.1183 34.0435 23.4421 34.5 23.4421C34.6304 23.4421 34.7609 23.3773 34.8913 23.3126L36.587 22.3412C37.6304 24.3487 38.2826 26.6152 38.413 28.8817H36.4565C36 28.8817 35.6739 29.2055 35.6739 29.6588C35.6739 30.1121 36 30.4359 36.4565 30.4359H38.413C38.2826 32.7024 37.6957 34.9041 36.6522 36.9116L34.9565 35.9402C34.8261 35.8755 34.6957 35.8107 34.5652 35.8107C34.1087 35.8107 33.7826 36.1345 33.7826 36.5878C33.7826 36.8468 33.913 37.1059 34.1739 37.2354L35.8696 38.2067C34.6304 40.0847 33.0652 41.6389 31.1739 42.8692ZM34.1087 29.6588C34.1087 29.2055 33.7826 28.8817 33.3261 28.8817H25.8913C25.5652 27.5865 24.587 26.5504 23.2174 26.2266V18.8443C23.2174 18.391 22.8913 18.0672 22.4348 18.0672C21.9783 18.0672 21.6522 18.391 21.6522 18.8443V26.2266C20.0217 26.6152 18.913 27.9751 18.913 29.6588C18.913 31.6015 20.4783 33.1557 22.4348 33.1557C24.0652 33.1557 25.5 31.99 25.8913 30.4359H33.3261C33.7826 30.4359 34.1087 30.0473 34.1087 29.6588ZM22.5 31.6015C21.3913 31.6015 20.5435 30.6949 20.5435 29.6588C20.5435 28.5579 21.4565 27.7161 22.5 27.7161C23.5435 27.7161 24.4565 28.6227 24.4565 29.6588C24.4565 30.7596 23.6087 31.6015 22.5 31.6015Z" fill="#134983"/>
</svg>
